<?xml version="1.0" encoding="utf-8"?>
<!-- Generator: Adobe Illustrator 19.0.0, SVG Export Plug-In . SVG Version: 6.00 Build 0)  -->
<svg version="1.1" id="Layer_1" xmlns="http://www.w3.org/2000/svg" xmlns:xlink="http://www.w3.org/1999/xlink" x="0px" y="0px"
	 viewBox="-125 166 360 461" style="enable-background:new -125 166 360 461;" xml:space="preserve">
<style type="text/css">
	.st0{display:none;fill:#0066FF;}
	.st1{fill:none;stroke:#FFFFFF;stroke-width:0.6726;stroke-miterlimit:10;}
	.st2{fill:none;stroke:#FFFFFF;stroke-width:0.6726;stroke-linecap:round;stroke-miterlimit:10;stroke-dasharray:5.3924,5.3924;}
	.st3{fill:none;stroke:#FFFFFF;stroke-width:0.531;stroke-linecap:round;stroke-miterlimit:10;stroke-dasharray:4.2566,4.2566;}
	.st4{fill:none;stroke:#FFFFFF;stroke-width:0.8495;stroke-linecap:round;stroke-miterlimit:10;}
	.st5{fill:none;stroke:#FFFFFF;stroke-width:0.8495;stroke-linecap:round;stroke-miterlimit:10;stroke-dasharray:7.659,7.659;}
	.st6{fill:none;stroke:#FFFFFF;stroke-width:0.8304;stroke-linecap:round;stroke-miterlimit:10;}
	.st7{fill:none;stroke:#FFFFFF;stroke-width:0.8304;stroke-linecap:round;stroke-miterlimit:10;stroke-dasharray:7.6134,7.6134;}
	.st8{fill:none;stroke:#FFFFFF;stroke-width:0.531;stroke-linecap:round;stroke-miterlimit:10;stroke-dasharray:4.7785;}
	.st9{fill:none;stroke:#FFFFFF;stroke-width:0.6726;stroke-linecap:round;stroke-miterlimit:10;stroke-dasharray:6.0536;}
	.st10{fill:#FFFFFF;}
	.st11{fill:#CCCCCC;}
	.st12{fill:#79AFDB;}
	.st13{fill:none;stroke:#FFFFFF;stroke-width:1.4889;stroke-linecap:round;stroke-miterlimit:10;}
	.st14{font-family:'Montserrat-Regular';}
	.st15{font-size:6.953px;}
	.st16{fill:none;stroke:#FFFFFF;stroke-width:0.6726;stroke-linecap:round;stroke-miterlimit:10;}
	.st17{font-family:'Montserrat-Light';}
	.st18{font-size:5.6539px;}
	.st19{fill:none;stroke:#FFFFFF;stroke-width:0.5646;stroke-linecap:round;stroke-miterlimit:10;stroke-dasharray:6.7756;}
</style>
<rect id="XMLID_477_" x="-125" y="166" class="st0" width="360" height="461"/>
<circle id="XMLID_517_" class="st1" cx="-6.9" cy="250.4" r="7"/>
<circle id="XMLID_518_" class="st1" cx="52.8" cy="250.4" r="7"/>
<circle id="XMLID_520_" class="st1" cx="119.2" cy="250.4" r="7"/>
<circle id="XMLID_528_" class="st1" cx="65.8" cy="522.4" r="7"/>
<g id="XMLID_531_">
	<g id="XMLID_93_">
		<line id="XMLID_96_" class="st2" x1="-59.6" y1="250.4" x2="-58.4" y2="250.4"/>
		<line id="XMLID_95_" class="st2" x1="-56.1" y1="250.4" x2="-23.5" y2="250.4"/>
		<line id="XMLID_94_" class="st2" x1="-22.4" y1="250.4" x2="-21" y2="250.4"/>
	</g>
</g>
<g id="XMLID_532_">
	<g id="XMLID_83_">
		<line id="XMLID_86_" class="st2" x1="4" y1="250.5" x2="5.3" y2="250.5"/>
		<line id="XMLID_85_" class="st2" x1="7.8" y1="250.5" x2="40.7" y2="250.5"/>
		<line id="XMLID_84_" class="st2" x1="41.9" y1="250.5" x2="43.1" y2="250.5"/>
	</g>
</g>
<g id="XMLID_533_">
	<g id="XMLID_79_">
		<line id="XMLID_97_" class="st3" x1="62.9" y1="250.2" x2="64.3" y2="250.2"/>
		<line id="XMLID_81_" class="st3" x1="67.2" y1="250.2" x2="105.4" y2="250.2"/>
		<line id="XMLID_80_" class="st3" x1="106.8" y1="250.2" x2="108.3" y2="250.2"/>
	</g>
</g>
<g id="XMLID_534_">
	<g id="XMLID_68_">
		<line id="XMLID_98_" class="st3" x1="128.4" y1="250.2" x2="129.5" y2="250.2"/>
		<line id="XMLID_70_" class="st3" x1="131.6" y1="250.2" x2="159.2" y2="250.2"/>
		<line id="XMLID_69_" class="st3" x1="160.3" y1="250.2" x2="161.3" y2="250.2"/>
	</g>
</g>
<g id="XMLID_536_">
	<g id="XMLID_23_">
		<path id="XMLID_27_" class="st4" d="M-74.7,385.7c-1,0-2,0-3.1,0.1"/>
		<path id="XMLID_25_" class="st5" d="M-84,386.7c-5.4,1.3-11.4,4.4-16,11c-3.9,5.6-6.1,12.9-6.1,60.5c0,42,1.7,48.9,5.7,54.5
			c5.5,7.7,13.3,10,19.5,10.3"/>
		<path id="XMLID_24_" class="st4" d="M-77.8,523.1c1.1,0,2.2-0.1,3.1-0.2"/>
	</g>
</g>
<g id="XMLID_543_">
	<g id="XMLID_53_">
		<line id="XMLID_56_" class="st2" x1="-50.4" y1="386.7" x2="-49.4" y2="386.7"/>
		<line id="XMLID_55_" class="st2" x1="-47.4" y1="386.7" x2="-18.6" y2="386.7"/>
		<line id="XMLID_54_" class="st2" x1="-17.6" y1="386.7" x2="-16.4" y2="386.7"/>
	</g>
</g>
<g id="XMLID_550_">
	<g id="XMLID_41_">
		<line id="XMLID_44_" class="st2" x1="4.1" y1="386.8" x2="5.3" y2="386.8"/>
		<line id="XMLID_43_" class="st2" x1="7.7" y1="386.8" x2="39.3" y2="386.8"/>
		<line id="XMLID_42_" class="st2" x1="40.5" y1="386.8" x2="41.7" y2="386.8"/>
	</g>
</g>
<g id="XMLID_557_">
	<g id="XMLID_58_">
		<line id="XMLID_66_" class="st2" x1="65.3" y1="386.8" x2="66.3" y2="386.8"/>
		<line id="XMLID_65_" class="st2" x1="68.4" y1="386.8" x2="95.9" y2="386.8"/>
		<line id="XMLID_59_" class="st2" x1="96.9" y1="386.8" x2="98" y2="386.8"/>
	</g>
</g>
<g id="XMLID_583_">
	<g id="XMLID_76_">
		<line id="XMLID_100_" class="st2" x1="120.1" y1="386.5" x2="121.4" y2="386.5"/>
		<line id="XMLID_99_" class="st2" x1="124" y1="386.5" x2="158.7" y2="386.5"/>
		<line id="XMLID_77_" class="st2" x1="160" y1="386.5" x2="161.3" y2="386.5"/>
	</g>
</g>
<g id="XMLID_584_">
	<g id="XMLID_46_">
		<line id="XMLID_49_" class="st5" x1="-51.2" y1="522.8" x2="-50" y2="522.8"/>
		<line id="XMLID_48_" class="st5" x1="-47.6" y1="522.8" x2="-14.1" y2="522.8"/>
		<line id="XMLID_47_" class="st5" x1="-12.9" y1="522.8" x2="-11.5" y2="522.8"/>
	</g>
</g>
<g id="XMLID_585_">
	<g id="XMLID_62_">
		<line id="XMLID_109_" class="st5" x1="11.1" y1="522.8" x2="12.5" y2="522.8"/>
		<line id="XMLID_64_" class="st5" x1="15.3" y1="522.8" x2="52.3" y2="522.8"/>
		<line id="XMLID_63_" class="st5" x1="53.7" y1="522.8" x2="55.1" y2="522.8"/>
	</g>
</g>
<g id="XMLID_586_">
	<g id="XMLID_111_">
		<line id="XMLID_126_" class="st5" x1="74.7" y1="522.7" x2="76.8" y2="522.7"/>
		<line id="XMLID_125_" class="st5" x1="80.9" y1="522.7" x2="128" y2="522.7"/>
		<line id="XMLID_112_" class="st5" x1="130" y1="522.7" x2="132.1" y2="522.7"/>
	</g>
</g>
<g id="XMLID_535_">
	<g id="XMLID_38_">
		<path id="XMLID_60_" class="st6" d="M181.8,249.9c0.6,0.1,1.4,0.2,2.3,0.3"/>
		<path class="st7" d="M188.7,250.5c7.3,0.5,15.3,1.5,20.3,7.5c6,7.9,5,16.9,5,25.8c1,29.8,5,59.6-3,90.4c-2,8.9-11,12.9-19.5,12.5"
			/>
	</g>
</g>
<g>
	<g>
		<line id="XMLID_588_" class="st8" x1="96.3" y1="250.4" x2="92.2" y2="249.2"/>
	</g>
	<line id="XMLID_589_" class="st8" x1="96.3" y1="250.4" x2="92.2" y2="251.5"/>
</g>
<g>
	<line id="XMLID_590_" class="st9" x1="-48.7" y1="387" x2="-43.7" y2="385.5"/>
	<path id="XMLID_591_" class="st9" d="M-48.7,387c1.6,0.5,3.2,1,4.9,1.5"/>
</g>
<g>
	<line id="XMLID_592_" class="st9" x1="39" y1="523.5" x2="32.9" y2="521.7"/>
	<path id="XMLID_668_" class="st9" d="M39,523.5c-2.1,0.5-4.1,1.1-6.1,1.6"/>
</g>
<g id="XMLID_75_">
	<path id="XMLID_577_" class="st10" d="M117.9,593.4c13.1,1.2,26.3,2.4,39.4,3.5c-1.6,1.4-3.1,2.9-4.7,4.3
		C141,598.6,129.4,596,117.9,593.4z"/>
	<path id="XMLID_593_" class="st10" d="M117.9,593.4c9.1,4.8,18.1,9.6,27.2,14.4c2-1.8,4.1-3.6,6.1-5.4
		C140.1,599.4,129,596.4,117.9,593.4z"/>
	<path id="XMLID_72_" class="st11" d="M151.2,602.4c0.5-0.4,0.9-0.8,1.4-1.2c-0.1,2.3-0.1,4.7-0.2,7
		C152,606.3,151.6,604.4,151.2,602.4z"/>
	<path id="XMLID_73_" class="st11" d="M152.6,601.2c-0.5,0.4-0.9,0.8-1.4,1.3c-11.1-3-22.2-6-33.2-9
		C129.5,596,141.1,598.6,152.6,601.2z"/>
	<path id="XMLID_74_" class="st12" d="M147.1,606.1c1.4-1.2,2.7-2.5,4.1-3.7c0.4,1.9,0.8,3.8,1.2,5.8
		C150.6,607.5,148.9,606.8,147.1,606.1z"/>
</g>
<line id="XMLID_247_" class="st13" x1="53" y1="226.3" x2="53" y2="238.8"/>
<line id="XMLID_249_" class="st13" x1="-6.6" y1="262.4" x2="-6.6" y2="274.9"/>
<line id="XMLID_250_" class="st13" x1="119.4" y1="262.4" x2="119.4" y2="274.9"/>
<line id="XMLID_428_" class="st13" x1="65.5" y1="497.9" x2="65.5" y2="510.9"/>
<g id="XMLID_431_">
	<text id="XMLID_116_" transform="matrix(1 0 0 1 -85.3565 217.9175)" class="st14 st15">Signup</text>
</g>
<g id="XMLID_432_">
	<text transform="matrix(1 0 0 1 -17.2939 284.6001)" class="st10 st14 st15">Profile </text>
	<text transform="matrix(1 0 0 1 -25.6552 292.9438)" class="st10 st14 st15">Completion</text>
</g>
<g id="XMLID_433_">
	<text transform="matrix(1 0 0 1 33.9605 213.6211)" class="st14 st15">Join online </text>
	<text transform="matrix(1 0 0 1 33.9605 221.9649)" class="st14 st15">classroom</text>
</g>
<text transform="matrix(1 0 0 1 84.6348 283.9942)" class="st10 st14 st15">Access timetables,</text>
<text transform="matrix(1 0 0 1 84.6348 292.3374)" class="st10 st14 st15">resources and other </text>
<text transform="matrix(1 0 0 1 84.6348 300.6812)" class="st10 st14 st15">important content</text>
<g id="XMLID_466_">
	<text transform="matrix(1 0 0 1 122.5811 206.0063)" class="st14 st15">Communicate with the </text>
	<text transform="matrix(1 0 0 1 122.5811 214.3501)" class="st14 st15">teacher and other students </text>
	<text transform="matrix(1 0 0 1 122.5811 222.6934)" class="st14 st15">within the classroom</text>
</g>
<g id="XMLID_470_">
	<text transform="matrix(1 0 0 1 23.7554 476.8066)" class="st14 st15">Teachers have access to </text>
	<text transform="matrix(1 0 0 1 23.7554 485.1504)" class="st14 st15">various tools to help </text>
	<text transform="matrix(1 0 0 1 23.7554 493.4941)" class="st14 st15">make their life easier</text>
</g>
<g id="XMLID_3_">
	<g id="XMLID_2_">
		<circle id="XMLID_491_" class="st1" cx="-73.1" cy="250.4" r="7"/>
		<g id="XMLID_1_">
			<g id="XMLID_526_">
				<g id="XMLID_28_">
					<path id="XMLID_31_" class="st16" d="M-107.8,224.7c0.1,0.6,0.2,1.5,0.5,2.8"/>
					<path id="XMLID_30_" class="st2" d="M-105.8,232.3c1.4,3.2,3.6,7,7.3,10.3c4.5,4.1,9.4,6,13.1,6.9"/>
					<path id="XMLID_29_" class="st16" d="M-82.9,250c1.3,0.2,2.2,0.3,2.8,0.3"/>
				</g>
			</g>
			<line id="XMLID_579_" class="st9" x1="-103.4" y1="236.7" x2="-103.9" y2="231.7"/>
			<line id="XMLID_580_" class="st9" x1="-103.4" y1="236.7" x2="-107.7" y2="233.1"/>
		</g>
		<line id="XMLID_245_" class="st13" x1="-72.8" y1="226.2" x2="-72.8" y2="238.8"/>
	</g>
	<text id="XMLID_476_" transform="matrix(1 0 0 1 -74.6836 252.188)" class="st10 st17 st18">1</text>
</g>
<text id="XMLID_478_" transform="matrix(1 0 0 1 -8.7177 252.5025)" class="st10 st17 st18">2</text>
<text id="XMLID_485_" transform="matrix(1 0 0 1 51.0704 252.5093)" class="st10 st17 st18">3</text>
<text id="XMLID_479_" transform="matrix(1 0 0 1 117.2783 252.5093)" class="st10 st17 st18">4</text>
<g id="XMLID_5_">
	<circle id="XMLID_519_" class="st1" cx="172.6" cy="250.4" r="7"/>
	<line id="XMLID_248_" class="st13" x1="172.8" y1="227.2" x2="172.8" y2="239.7"/>
	<text id="XMLID_486_" transform="matrix(1 0 0 1 171.2471 252.5093)" class="st10 st17 st18">5</text>
</g>
<circle id="XMLID_525_" class="st1" cx="-62.7" cy="385.8" r="7"/>
<line id="XMLID_251_" class="st13" x1="-62.5" y1="361.6" x2="-62.5" y2="374.6"/>
<g id="XMLID_468_">
	<text transform="matrix(1 0 0 1 -98.229 340.7105)" class="st14 st15">Teachers and Parents </text>
	<text transform="matrix(1 0 0 1 -96.6064 349.0542)" class="st14 st15">communicate only if </text>
	<text transform="matrix(1 0 0 1 -96.0967 357.3979)" class="st14 st15">the Student allows it</text>
</g>
<text id="XMLID_594_" transform="matrix(1 0 0 1 -65.9424 388.0572)" class="st10 st17 st18">10</text>
<g>
	<circle id="XMLID_524_" class="st1" cx="-6.1" cy="385.2" r="7"/>
	<line id="XMLID_425_" class="st13" x1="-5.8" y1="397.6" x2="-5.8" y2="409.6"/>
	<g id="XMLID_473_">
		<text transform="matrix(1 0 0 1 -43.4014 417.9521)" class="st10 st14 st15">Students get notified </text>
		<text transform="matrix(1 0 0 1 -43.4014 426.2959)" class="st10 st14 st15">about Events happening </text>
		<text transform="matrix(1 0 0 1 -43.4014 434.6396)" class="st10 st14 st15">in their city</text>
	</g>
	<text id="XMLID_490_" transform="matrix(1 0 0 1 -7.3935 387.4258)" class="st10 st17 st18">9</text>
</g>
<circle id="XMLID_523_" class="st1" cx="53" cy="384.5" r="7"/>
<line id="XMLID_252_" class="st13" x1="53.3" y1="360.3" x2="53.3" y2="373.2"/>
<g id="XMLID_467_">
	<text transform="matrix(1 0 0 1 -1.9165 337.0821)" class="st14 st15">Setup interactive and fun </text>
	<text transform="matrix(1 0 0 1 -1.9165 345.4258)" class="st14 st15">quizzes for Students to make </text>
	<text transform="matrix(1 0 0 1 -1.9165 353.7686)" class="st14 st15">learning engaging and effective</text>
</g>
<text id="XMLID_489_" transform="matrix(1 0 0 1 51.3262 386.7261)" class="st10 st17 st18">8</text>
<g>
	<circle id="XMLID_522_" class="st1" cx="109.2" cy="385.5" r="7"/>
	<line id="XMLID_426_" class="st13" x1="109.4" y1="397.9" x2="109.4" y2="409.9"/>
	<g id="XMLID_472_">
		<text transform="matrix(1 0 0 1 72.5449 417.6465)" class="st10 st14 st15">Schedule group study sessions </text>
		<text transform="matrix(1 0 0 1 72.5449 425.9902)" class="st10 st14 st15">with friends and also </text>
		<text transform="matrix(1 0 0 1 72.5449 434.334)" class="st10 st14 st15">have access to mentors</text>
	</g>
	<text id="XMLID_488_" transform="matrix(1 0 0 1 107.2891 387.7319)" class="st10 st17 st18">7</text>
</g>
<g id="XMLID_469_">
	<text transform="matrix(1 0 0 1 138.7168 339.7319)" class="st14 st15">Access to Aptitude </text>
	<text transform="matrix(1 0 0 1 138.7168 348.0752)" class="st14 st15">tests to make </text>
	<text transform="matrix(1 0 0 1 138.7168 356.4189)" class="st14 st15">informed decisions</text>
</g>
<g id="XMLID_4_">
	<circle id="XMLID_521_" class="st1" cx="171.4" cy="386.2" r="7"/>
	<line id="XMLID_253_" class="st13" x1="171.6" y1="362" x2="171.6" y2="375"/>
	<text id="XMLID_487_" transform="matrix(1 0 0 1 170.002 387.9854)" class="st10 st17 st18">6</text>
</g>
<circle id="XMLID_530_" class="st1" cx="-62.6" cy="521.5" r="7"/>
<line id="XMLID_427_" class="st13" x1="-62.3" y1="497" x2="-62.3" y2="510"/>
<g id="XMLID_471_">
	<text transform="matrix(1 0 0 1 -87.332 483.5459)" class="st14 st15">Teachers send </text>
	<text transform="matrix(1 0 0 1 -99.1519 491.8897)" class="st14 st15">Parents daily reports</text>
</g>
<text id="XMLID_595_" transform="matrix(1 0 0 1 -65.7813 523.6846)" class="st10 st17 st18">11</text>
<g>
	<circle id="XMLID_529_" class="st1" cx="0" cy="521.9" r="7"/>
	<line id="XMLID_430_" class="st13" x1="0.3" y1="534.5" x2="0.3" y2="546.5"/>
	<g id="XMLID_475_">
		<text transform="matrix(1 0 0 1 -44.2793 553.915)" class="st10 st14 st15">Students also get notified </text>
		<text transform="matrix(1 0 0 1 -44.2793 562.2588)" class="st10 st14 st15">about relevant internships</text>
	</g>
	<text id="XMLID_596_" transform="matrix(1 0 0 1 -3.0635 524.0957)" class="st10 st17 st18">12</text>
</g>
<text id="XMLID_597_" transform="matrix(1 0 0 1 62.6582 524.6191)" class="st10 st17 st18">13</text>
<g>
	<circle id="XMLID_527_" class="st1" cx="144.6" cy="523.6" r="7"/>
	<line id="XMLID_429_" class="st13" x1="144.8" y1="536.2" x2="144.8" y2="548.3"/>
	<g id="XMLID_474_">
		<text transform="matrix(1 0 0 1 93.5801 555.4922)" class="st10 st14 st15">And various other features are </text>
		<text transform="matrix(1 0 0 1 93.5801 563.8359)" class="st10 st14 st15">implemented to improve the </text>
		<text transform="matrix(1 0 0 1 93.5801 572.1787)" class="st10 st14 st15">standards of education</text>
	</g>
	<text id="XMLID_638_" transform="matrix(1 0 0 1 141.5723 525.8223)" class="st10 st17 st18">14</text>
</g>
<g id="XMLID_7_">
	<line id="XMLID_582_" class="st19" x1="192" y1="386.6" x2="197.1" y2="388.7"/>
	<line id="XMLID_6_" class="st19" x1="191.9" y1="386.2" x2="197.5" y2="384.3"/>
</g>
<g id="XMLID_8_">
	<g id="XMLID_9_">
		<path id="XMLID_12_" class="st6" d="M156.3,520.9c1.1,0.1,2.5,0.1,4.1,0.2"/>
		<path id="XMLID_11_" class="st7" d="M168.6,521.2c0.4,0,0.8,0,1.3,0c5.8,0.1,9.2,0.1,10.6,0.1c1,0,19,0.4,28,6.7
			c6.4,4.5,6.3,7.6,6.3,35.9c0,20.9-1.2,27.2-4.1,30.6c-0.8,0.9-1.7,1.6-1.8,1.7c-4.1,3.5-10,5.7-23.6,6.9
			c-5.5,0.5-12.5,0.8-20.9,0.4"/>
		<path id="XMLID_10_" class="st6" d="M160.4,603.3c-1.3-0.1-2.7-0.2-4.1-0.3"/>
	</g>
</g>
<g id="XMLID_13_">
	<g id="XMLID_14_">
		<line id="XMLID_17_" class="st2" x1="180.3" y1="386.5" x2="180.6" y2="386.5"/>
		<line id="XMLID_16_" class="st2" x1="181.2" y1="386.5" x2="189.1" y2="386.5"/>
		<line id="XMLID_15_" class="st2" x1="189.4" y1="386.5" x2="189.7" y2="386.5"/>
	</g>
</g>
</svg>
