<?xml version="1.0" encoding="utf-8"?>
<!-- Generator: Adobe Illustrator 21.0.0, SVG Export Plug-In . SVG Version: 6.00 Build 0)  -->
<svg version="1.1" id="Layer_1" xmlns="http://www.w3.org/2000/svg" xmlns:xlink="http://www.w3.org/1999/xlink" x="0px" y="0px"
	 viewBox="0 0 1366 574.2" style="enable-background:new 0 0 1366 574.2;" xml:space="preserve">
<style type="text/css">
	.st0{display:none;}
	.st1{display:inline;fill:none;}
	.st2{opacity:0.5;}
	.st3{display:none;opacity:0.7;fill:#CC3333;enable-background:new    ;}
	.st4{opacity:0.7;}
	.st5{clip-path:url(#SVGID_2_);fill:#2D213F;}
	.st6{fill:#FEDE94;}
	.st7{fill:#AAE1E9;}
	.st8{fill:#F47C6D;}
	.st9{fill:#505967;}
	.st10{fill:#2D213F;}
	.st11{fill:#FF5023;}
	.st12{fill:#FF9811;}
	.st13{fill:#FFDA44;}
	.st14{fill:#CDCDD0;}
	.st15{fill:#ACABB1;}
	.st16{fill:none;stroke:#2D213F;stroke-width:2.5939;stroke-linejoin:round;stroke-miterlimit:10;}
	.st17{fill:#F7B239;}
	.st18{fill:#F95428;}
	.st19{fill:#2BA5F7;}
	.st20{fill:#E6E6E6;}
	.st21{fill:#333333;}
	.st22{fill:#FF7F4F;}
	.st23{fill:#FF5419;}
	.st24{fill:#FFC61B;}
	.st25{fill:#FFEDB5;}
	.st26{fill:none;stroke:#2D213F;stroke-width:3.1247;stroke-linejoin:round;stroke-miterlimit:10;}
	.st27{fill:none;stroke:#2D213F;stroke-width:3.1247;stroke-miterlimit:10;}
	.st28{fill:none;stroke:#2D213F;stroke-width:2.0968;stroke-miterlimit:10;}
	.st29{fill:none;stroke:#2D213F;stroke-width:2.0623;stroke-miterlimit:10;}
	.st30{fill:none;stroke:#2D213F;stroke-width:2.0835;stroke-miterlimit:10;}
	.st31{fill:#2488FF;}
	.st32{fill:#005ECE;}
	.st33{fill:#FFCD00;}
	.st34{fill:none;stroke:#2D213F;stroke-width:2.6221;stroke-miterlimit:10;}
</style>
<g id="Layer_5" class="st0">
	
		<text id="XMLID_563_" transform="matrix(1 0 0 1 1213.2158 1068.5017)" style="display:inline;fill:#CCCCCC; font-family:'Raleway-Regular'; font-size:24.016px;">Students</text>
	
		<text id="XMLID_562_" transform="matrix(1 0 0 1 1225.1553 1026.4343)" style="display:inline;fill:#FFFFFF; font-family:'Montserrat-Medium'; font-size:130px;">7</text>
	
		<text id="XMLID_561_" transform="matrix(1 0 0 1 1309.5557 1026.4343)" style="display:inline;fill:#FFFFFF; font-family:'Montserrat-Medium'; font-size:130px;">2</text>
	
		<text id="XMLID_560_" transform="matrix(1 0 0 1 1140.3486 1026.4343)" style="display:inline;fill:#FFFFFF; font-family:'Montserrat-Medium'; font-size:130px;">9</text>
	<rect id="XMLID_559_" x="1200.9" y="1104.8" class="st1" width="142" height="126"/>
	
		<text transform="matrix(1 0 0 1 1200.9431 1118.1062)" style="display:inline;fill:#B3B3B3; font-family:'Montserrat-Medium'; font-size:18px;">Lorem ipsum </text>
	
		<text transform="matrix(1 0 0 1 1200.9431 1139.7063)" style="display:inline;fill:#B3B3B3; font-family:'Montserrat-Medium'; font-size:18px;">dolor sit amet, </text>
	
		<text transform="matrix(1 0 0 1 1200.9431 1161.3062)" style="display:inline;fill:#B3B3B3; font-family:'Montserrat-Medium'; font-size:18px;">consectetur </text>
	
		<text transform="matrix(1 0 0 1 1200.9431 1182.9063)" style="display:inline;fill:#B3B3B3; font-family:'Montserrat-Medium'; font-size:18px;">adipiscing elit.</text>
	
		<text id="XMLID_556_" transform="matrix(1 0 0 1 915.8822 1068.5017)" style="display:inline;fill:#CCCCCC; font-family:'Raleway-Regular'; font-size:24.016px;">Students</text>
	
		<text id="XMLID_555_" transform="matrix(1 0 0 1 927.8218 1026.4343)" style="display:inline;fill:#FFFFFF; font-family:'Montserrat-Medium'; font-size:130px;">7</text>
	
		<text id="XMLID_554_" transform="matrix(1 0 0 1 1012.2219 1026.4343)" style="display:inline;fill:#FFFFFF; font-family:'Montserrat-Medium'; font-size:130px;">2</text>
	
		<text id="XMLID_553_" transform="matrix(1 0 0 1 843.015 1026.4343)" style="display:inline;fill:#FFFFFF; font-family:'Montserrat-Medium'; font-size:130px;">9</text>
	<rect id="XMLID_552_" x="903.6" y="1104.8" class="st1" width="142" height="126"/>
	
		<text transform="matrix(1 0 0 1 903.6096 1118.1062)" style="display:inline;fill:#B3B3B3; font-family:'Montserrat-Medium'; font-size:18px;">Lorem ipsum </text>
	
		<text transform="matrix(1 0 0 1 903.6096 1139.7063)" style="display:inline;fill:#B3B3B3; font-family:'Montserrat-Medium'; font-size:18px;">dolor sit amet, </text>
	
		<text transform="matrix(1 0 0 1 903.6096 1161.3062)" style="display:inline;fill:#B3B3B3; font-family:'Montserrat-Medium'; font-size:18px;">consectetur </text>
	
		<text transform="matrix(1 0 0 1 903.6096 1182.9063)" style="display:inline;fill:#B3B3B3; font-family:'Montserrat-Medium'; font-size:18px;">adipiscing elit.</text>
	
		<text id="XMLID_549_" transform="matrix(1 0 0 1 622.8789 1068.5017)" style="display:inline;fill:#CCCCCC; font-family:'Raleway-Regular'; font-size:24.016px;">Students</text>
	
		<text id="XMLID_548_" transform="matrix(1 0 0 1 634.8184 1026.4343)" style="display:inline;fill:#FFFFFF; font-family:'Montserrat-Medium'; font-size:130px;">7</text>
	
		<text id="XMLID_547_" transform="matrix(1 0 0 1 719.2188 1026.4343)" style="display:inline;fill:#FFFFFF; font-family:'Montserrat-Medium'; font-size:130px;">2</text>
	
		<text id="XMLID_546_" transform="matrix(1 0 0 1 550.0117 1026.4343)" style="display:inline;fill:#FFFFFF; font-family:'Montserrat-Medium'; font-size:130px;">9</text>
	<rect id="XMLID_545_" x="610.6" y="1104.8" class="st1" width="142" height="126"/>
	
		<text transform="matrix(1 0 0 1 610.6062 1118.1062)" style="display:inline;fill:#B3B3B3; font-family:'Montserrat-Medium'; font-size:18px;">Lorem ipsum </text>
	
		<text transform="matrix(1 0 0 1 610.6062 1139.7063)" style="display:inline;fill:#B3B3B3; font-family:'Montserrat-Medium'; font-size:18px;">dolor sit amet, </text>
	
		<text transform="matrix(1 0 0 1 610.6062 1161.3062)" style="display:inline;fill:#B3B3B3; font-family:'Montserrat-Medium'; font-size:18px;">consectetur </text>
	
		<text transform="matrix(1 0 0 1 610.6062 1182.9063)" style="display:inline;fill:#B3B3B3; font-family:'Montserrat-Medium'; font-size:18px;">adipiscing elit.</text>
	
		<text id="XMLID_542_" transform="matrix(1 0 0 1 325.5452 1068.5017)" style="display:inline;fill:#CCCCCC; font-family:'Raleway-Regular'; font-size:24.016px;">Students</text>
	
		<text id="XMLID_541_" transform="matrix(1 0 0 1 337.4846 1026.4343)" style="display:inline;fill:#FFFFFF; font-family:'Montserrat-Medium'; font-size:130px;">7</text>
	
		<text id="XMLID_540_" transform="matrix(1 0 0 1 421.885 1026.4343)" style="display:inline;fill:#FFFFFF; font-family:'Montserrat-Medium'; font-size:130px;">2</text>
	
		<text id="XMLID_539_" transform="matrix(1 0 0 1 252.678 1026.4343)" style="display:inline;fill:#FFFFFF; font-family:'Montserrat-Medium'; font-size:130px;">9</text>
	<rect id="XMLID_538_" x="313.3" y="1104.8" class="st1" width="142" height="126"/>
	
		<text transform="matrix(1 0 0 1 313.2726 1118.1062)" style="display:inline;fill:#B3B3B3; font-family:'Montserrat-Medium'; font-size:18px;">Lorem ipsum </text>
	
		<text transform="matrix(1 0 0 1 313.2726 1139.7063)" style="display:inline;fill:#B3B3B3; font-family:'Montserrat-Medium'; font-size:18px;">dolor sit amet, </text>
	
		<text transform="matrix(1 0 0 1 313.2726 1161.3062)" style="display:inline;fill:#B3B3B3; font-family:'Montserrat-Medium'; font-size:18px;">consectetur </text>
	
		<text transform="matrix(1 0 0 1 313.2726 1182.9063)" style="display:inline;fill:#B3B3B3; font-family:'Montserrat-Medium'; font-size:18px;">adipiscing elit.</text>
</g>
<g id="Layer_4">
</g>
<g id="Layer_1_1_">
</g>
<g id="Layer_3" class="st2">
</g>
<rect id="XMLID_578_" y="0" class="st3" width="1366" height="574.2"/>
<g id="XMLID_524_" class="st4">
	<g id="XMLID_528_">
		<g>
			<g>
				<g>
					<defs>
						<rect id="SVGID_1_" x="43.5" y="102.9" width="46.1" height="52.2"/>
					</defs>
					<clipPath id="SVGID_2_">
						<use xlink:href="#SVGID_1_"  style="overflow:visible;"/>
					</clipPath>
					<path id="XMLID_530_" class="st5" d="M89.4,139.1v8.9c0,0.8-0.7,1.5-1.5,1.5H46.5v3.9c0,0.8-0.7,1.5-1.5,1.5s-1.5-0.7-1.5-1.5
						v-48.8c0-0.8,0.7-1.5,1.5-1.5s1.5,0.7,1.5,1.5v4.7h15.8c0.8,0,1.5,0.7,1.5,1.5v8.9c0,0.8-0.7,1.5-1.5,1.5H46.5v2.2h24
						c0.8,0,1.5,0.7,1.5,1.5v8.9c0,0.8-0.7,1.5-1.5,1.5h-24v2.4h41.5C88.7,137.6,89.4,138.2,89.4,139.1L89.4,139.1z M86.4,146.4
						v-5.8h-40v5.8H86.4z M68.9,132.1v-5.8H46.5v5.8H68.9z M60.7,118v-5.8H46.4v5.8H60.7z"/>
				</g>
			</g>
		</g>
	</g>
	<rect id="XMLID_527_" x="46.5" y="140.6" class="st6" width="40" height="5.8"/>
	<rect id="XMLID_526_" x="46.5" y="126.2" class="st7" width="22.4" height="5.8"/>
	<rect id="XMLID_525_" x="46.5" y="112.3" class="st8" width="14.3" height="5.8"/>
</g>
<g id="XMLID_509_" class="st4">
	<path id="XMLID_521_" class="st9" d="M373.8,59.6h23.4c-1,12-11,21.3-23.2,21.3c-12.8,0-23.3-10.5-23.3-23.3
		c0-12,9.4-22.2,21.3-23.2v23.4C372.1,58.8,373,59.6,373.8,59.6L373.8,59.6z"/>
	<path id="XMLID_518_" class="st8" d="M406.3,50.8h-25V25.5C394.6,26.4,405.6,37.3,406.3,50.8L406.3,50.8z"/>
	<path id="XMLID_514_" class="st10" d="M409.9,52.4v0.2c0,1-0.8,1.7-1.7,1.7h-28.7c-1,0-1.7-0.7-1.7-1.7V23.6c0-0.4,0.2-0.8,0.6-1.3
		c0.2-0.2,0.7-0.6,1.3-0.6l0,0C396.2,21.9,409.9,35.6,409.9,52.4L409.9,52.4z M381.3,50.8h25c-0.8-13.5-11.6-24.4-25-25.3V50.8z"/>
	<path id="XMLID_510_" class="st10" d="M400.4,56.6c0.2,0.2,0.6,0.7,0.6,1.3c-0.2,14.7-12,26.6-26.7,26.6c-14.8,0-26.7-12-26.7-26.7
		s12-26.6,26.6-26.7c0.4,0,0.8,0.2,1.3,0.6c0.2,0.2,0.6,0.7,0.6,1.3v23.4h23.6C399.7,56.1,400.1,56.3,400.4,56.6L400.4,56.6z
		 M397.4,59.6H374c-1,0-1.7-0.7-1.7-1.7V34.4c-12,1-21.3,11-21.3,23.2c0,12.8,10.5,23.3,23.3,23.3C386.3,80.8,396.4,71.5,397.4,59.6
		L397.4,59.6z"/>
</g>
<g id="XMLID_490_" class="st4">
	<path id="XMLID_506_" class="st6" d="M707.4,102.7v45.6h-6.9v-38.6C702.8,107.7,705.2,105.3,707.4,102.7L707.4,102.7z"/>
	<path id="XMLID_503_" class="st7" d="M689.9,116.9v31.5H683V120C685.3,119.2,687.5,118.1,689.9,116.9L689.9,116.9z"/>
	<path id="XMLID_500_" class="st8" d="M671.9,122.9v25.4H665v-24.8C667.1,123.4,669.4,123.4,671.9,122.9L671.9,122.9z"/>
	<path id="XMLID_491_" class="st10" d="M715.8,88v9.1l-2.7-1.7c-0.7,1.1-1.5,2.1-2.2,3.1c0.1,0.2,0.2,0.7,0.2,0.9v48.9h0.7
		c1,0,1.9,0.9,1.9,1.9s-0.9,1.9-1.9,1.9h-55.3c-1,0-1.9-0.9-1.9-1.9V94.7c0-1,0.9-1.9,1.9-1.9s1.9,0.9,1.9,1.9v24.9
		c5.9,0.9,31.8,2.8,51.7-26l-2.2-1.4L715.8,88z M707.4,148.4v-45.7c-2.2,2.6-4.6,4.8-6.9,6.9v38.7L707.4,148.4L707.4,148.4z
		 M696.9,148.4v-35.9c-1.1,0.9-2.2,1.6-3.3,2.2v33.6H696.9z M689.9,148.4v-31.5c-2.3,1.2-4.7,2.3-6.9,3.1v28.4H689.9z M679.4,148.4
		v-27.1c-1.4,0.4-2.6,0.7-3.8,1v26.2L679.4,148.4L679.4,148.4z M671.9,148.4V123c-2.6,0.4-4.8,0.7-6.9,0.7v24.8L671.9,148.4
		L671.9,148.4z M661.4,148.4v-24.8c-1.2,0-2.2-0.1-3.1-0.2v25H661.4z"/>
</g>
<g id="XMLID_470_" class="st4">
	<path id="XMLID_487_" class="st8" d="M1011.5,23.6c2.1,0,3.8,1.7,3.8,3.8s-1.7,3.8-3.8,3.8s-3.8-1.7-3.8-3.8
		C1007.6,25.3,1009.4,23.6,1011.5,23.6L1011.5,23.6z"/>
	<path id="XMLID_484_" class="st8" d="M988.4,58c2.1,0,3.8,1.7,3.8,3.8s-1.7,3.8-3.8,3.8s-3.8-1.7-3.8-3.8
		C984.6,59.9,986.3,58,988.4,58L988.4,58z"/>
	<path id="XMLID_481_" class="st8" d="M958.2,46.3c2.1,0,3.8,1.7,3.8,3.8s-1.7,3.8-3.8,3.8s-3.8-1.7-3.8-3.8S956.1,46.3,958.2,46.3
		L958.2,46.3z"/>
	<path id="XMLID_474_" class="st10" d="M1011.5,18.3c5.1,0,9,4.1,9,9.2c0,5.1-4.1,9.2-9,9.2c-0.7,0-1.4-0.1-2.1-0.3l-13.5,20.3
		c1,1.6,1.7,3.4,1.7,5.2c0,5.1-4.1,9.2-9,9.2c-5.1,0-9-4.1-9-9.2c0-0.1,0-0.4,0-0.6l-14-5.6c-1.7,2.1-4.2,3.5-7.2,3.5
		c-1,0-2-0.1-2.8-0.4l-11.1,15.9c1.4,1.6,2.3,3.7,2.3,6.1c0,5.1-4.1,9.2-9,9.2c-5.1,0-9-4.1-9-9.2s4.1-9.2,9-9.2
		c0.8,0,1.6,0.1,2.4,0.3l11.3-16.2c-1.3-1.6-2-3.5-2-5.6c0-5.1,4.1-9.2,9-9.2c5.1,0,9,4.1,9,9.2c0,0.3,0,0.4,0,0.6l14,5.6
		c1.7-2.3,4.2-3.7,7.2-3.7c1.1,0,2.3,0.3,3.2,0.6l13.1-19.6c-1.6-1.7-2.5-3.8-2.5-6.2C1002.4,22.4,1006.5,18.3,1011.5,18.3
		L1011.5,18.3z M1015.4,27.4c0-2.1-1.7-3.8-3.8-3.8s-3.8,1.7-3.8,3.8s1.7,3.8,3.8,3.8C1013.7,31.4,1015.4,29.6,1015.4,27.4
		L1015.4,27.4z M992.2,62c0-2.1-1.7-3.8-3.8-3.8c-2.1,0-3.8,1.7-3.8,3.8s1.7,3.8,3.8,3.8S992.2,64.1,992.2,62L992.2,62z M962,50.2
		c0-2.1-1.7-3.8-3.8-3.8s-3.8,1.7-3.8,3.8s1.7,3.8,3.8,3.8S962,52.3,962,50.2L962,50.2z M941.3,80.9c0-2.1-1.7-3.8-3.8-3.8
		s-3.8,1.7-3.8,3.8s1.7,3.8,3.8,3.8C939.5,84.7,941.3,83,941.3,80.9L941.3,80.9z"/>
	<path id="XMLID_471_" class="st8" d="M937.4,76.9c2.1,0,3.8,1.7,3.8,3.8s-1.7,3.8-3.8,3.8s-3.8-1.7-3.8-3.8
		C933.6,78.8,935.4,76.9,937.4,76.9L937.4,76.9z"/>
</g>
<g id="XMLID_57_" class="st4">
	<path id="XMLID_254_" class="st6" d="M1301.8,121.9c0,0.4,0,0.7,0,1.2c0,14.5-12,26.3-26.5,26.3c-5.2,0-10.2-1.5-14.4-4.3
		c2.1-2.1,4.3-4.3,6.2-6.2c2.5,1.3,5.2,1.9,8.1,1.9c9.9,0,17.9-8,17.9-17.8c0-0.4,0-0.7,0-1.2L1301.8,121.9L1301.8,121.9z"/>
	<path id="XMLID_251_" class="st7" d="M1279.1,97v8.7c-1.2-0.3-2.5-0.4-3.8-0.4c-9.9,0-17.9,8-17.9,17.8c0,3.1,0.7,5.9,2.3,8.6
		l-6.2,6.2c-3.1-4.4-4.7-9.6-4.7-14.8c0-14.5,12-26.3,26.5-26.3C1276.4,96.7,1277.7,96.9,1279.1,97L1279.1,97z"/>
	<path id="XMLID_248_" class="st8" d="M1306,110.8h-11.2c-1.2-1.9-2.6-3.7-4.3-4.9v-12C1297.7,97.3,1303.3,103.4,1306,110.8
		L1306,110.8z"/>
	<path id="XMLID_68_" class="st10" d="M1310.5,112.3c0.1,0.6,0,1.2-0.3,1.8c-0.4,0.4-1,0.7-1.6,0.7h-15c-0.7,0-1.5-0.4-1.8-1
		c-1-2.1-2.6-4-4.5-5.4c-0.4-0.4-0.7-1-0.7-1.6V91c0-0.6,0.3-1.2,0.9-1.6c0.6-0.4,1.2-0.4,1.8-0.3
		C1299.8,92.9,1307.8,101.5,1310.5,112.3L1310.5,112.3z M1294.8,110.8h11.2c-2.6-7.4-8.3-13.6-15.4-16.9v12
		C1292.2,107.2,1293.7,109,1294.8,110.8L1294.8,110.8z"/>
	<path id="XMLID_64_" class="st10" d="M1305.6,119.8c0.1,1.3,0.1,2.3,0.1,3.4c0,16.7-13.7,30.3-30.5,30.3c-6.8,0-13.3-2.2-18.6-6.4
		c-0.4-0.3-0.7-0.9-0.7-1.5c0-0.6,0.1-1.2,0.6-1.5l0.4-0.4c2.9-2.9,5.8-5.6,8.6-8.6c0.6-0.6,1.6-0.7,2.5-0.3
		c2.2,1.5,4.8,2.2,7.4,2.2c7.7,0,14-6.2,14-13.9c0-0.9-0.1-1.8-0.3-2.6c-0.1-0.6,0-1.2,0.4-1.6c0.4-0.4,0.9-0.7,1.5-0.7h12.7
		C1304.5,118.1,1305.4,118.9,1305.6,119.8L1305.6,119.8z M1301.8,123c0-0.3,0-0.7,0-1.2h-8.6c0,0.4,0,0.7,0,1.2
		c0,9.8-8,17.8-17.9,17.8c-2.8,0-5.6-0.7-8.1-1.9c-2.1,2.1-4.3,4.3-6.2,6.2c4.4,2.8,9.3,4.3,14.4,4.3
		C1289.9,149.4,1301.8,137.6,1301.8,123L1301.8,123z"/>
	<path id="XMLID_59_" class="st10" d="M1283,95.4v13c0,0.6-0.3,1.3-0.9,1.6s-1.2,0.4-1.9,0.1c-1.6-0.6-3.4-1-4.9-1
		c-7.7,0-14,6.2-14,13.9c0,2.8,0.9,5.5,2.5,7.9c0.6,0.7,0.4,1.9-0.3,2.5l-9,8.9c-0.4,0.4-0.9,0.6-1.5,0.6h-0.1c-0.6,0-1-0.3-1.5-0.7
		c-4.4-5.4-6.8-12.3-6.8-19.1c0-16.6,13.7-30.3,30.5-30.3c2.1,0,4.1,0.1,6.1,0.6C1282.3,93.6,1283,94.4,1283,95.4L1283,95.4z
		 M1279.1,105.7V97c-1.3-0.1-2.5-0.3-3.8-0.3c-14.5,0-26.5,11.8-26.5,26.3c0,5.2,1.6,10.5,4.7,14.8l6.2-6.2
		c-1.5-2.6-2.3-5.6-2.3-8.6c0-9.8,8-17.8,17.9-17.8C1276.6,105.3,1277.7,105.4,1279.1,105.7L1279.1,105.7z"/>
</g>
<g id="XMLID_1_" class="st4">
	<g id="XMLID_583_">
		<rect id="XMLID_581_" x="51.5" y="515.2" class="st11" width="11.3" height="26.2"/>
		<rect id="XMLID_580_" x="51.5" y="502" class="st12" width="11.3" height="13.2"/>
		<rect id="XMLID_579_" x="51.5" y="488.9" class="st13" width="11.3" height="13.2"/>
		<rect id="XMLID_577_" x="68.4" y="528.2" class="st11" width="11.3" height="13.2"/>
		<rect id="XMLID_557_" x="68.4" y="509.5" class="st12" width="11.3" height="18.7"/>
		<rect id="XMLID_550_" x="68.4" y="496.4" class="st13" width="11.3" height="13.2"/>
		<rect id="XMLID_543_" x="85.2" y="522.6" class="st11" width="11.3" height="18.7"/>
		<rect id="XMLID_536_" x="85.2" y="502" class="st12" width="11.3" height="20.6"/>
		<rect id="XMLID_469_" x="85.2" y="488.9" class="st13" width="11.3" height="13.2"/>
		<rect id="XMLID_468_" x="102.2" y="528.2" class="st11" width="11.3" height="13.2"/>
		<rect id="XMLID_467_" x="102.2" y="515.2" class="st12" width="11.3" height="13.2"/>
		<rect id="XMLID_466_" x="102.2" y="496.4" class="st13" width="11.3" height="18.7"/>
		<g id="XMLID_582_">
			<path id="XMLID_587_" class="st14" d="M79.7,541.5H46v7.5h36.5v-7.5H79.7z"/>
			<path id="XMLID_584_" class="st15" d="M113.5,541.5h-31v7.5h36.5v-7.5H113.5z"/>
		</g>
	</g>
	<rect id="XMLID_600_" x="51.5" y="488.2" class="st16" width="11.3" height="52.5"/>
	<rect id="XMLID_601_" x="68.4" y="496.4" class="st16" width="11.3" height="44.4"/>
	<rect id="XMLID_602_" x="85.2" y="488.9" class="st16" width="11.3" height="51.8"/>
	<rect id="XMLID_603_" x="102.2" y="496.4" class="st16" width="11.3" height="44.4"/>
	<rect id="XMLID_604_" x="46" y="540.8" class="st16" width="73.1" height="7.5"/>
</g>
<g id="XMLID_2_" class="st4">
	<rect id="XMLID_672_" x="495.9" y="495.1" class="st17" width="8" height="8"/>
	<g id="XMLID_666_">
		<polygon id="XMLID_670_" class="st18" points="476.2,498.9 469.8,498.9 469.8,492.5 		"/>
		<polygon id="XMLID_669_" class="st18" points="476.2,498.9 476.2,506.5 462.2,506.5 462.2,492.5 469.8,492.5 469.8,498.9 		"/>
	</g>
	<rect id="XMLID_664_" x="483.2" y="492.5" class="st19" width="8" height="8"/>
	<path id="XMLID_623_" class="st20" d="M509.6,486.4v36.2h-5.7V518h-9.7v4.6h-38.8v-36.2H509.6z M504.1,503.2v-8.1h-8v8h8V503.2z
		 M491.2,500.5v-8h-8v8H491.2z M476.2,506.5V499l-6.6-6.6h-7.5v14.1H476.2L476.2,506.5z"/>
	<rect id="XMLID_622_" x="494.2" y="518" class="st18" width="9.7" height="4.6"/>
	<g id="XMLID_616_">
		<polygon id="XMLID_621_" class="st17" points="513.7,522.6 513.7,529 493.2,529 482.5,529 471.8,529 451.3,529 451.3,522.6 
			455.4,522.6 494.2,522.6 503.9,522.6 509.6,522.6 		"/>
		<polygon id="XMLID_620_" class="st17" points="493.2,529 507.6,546.6 496.9,546.6 482.5,529 		"/>
		<polygon id="XMLID_619_" class="st17" points="482.5,529 468.1,546.6 457.4,546.6 471.8,529 		"/>
		<rect id="XMLID_618_" x="476.1" y="476.4" class="st17" width="12.8" height="5"/>
		<polygon id="XMLID_617_" class="st17" points="513.7,481.4 513.7,486.4 509.6,486.4 455.4,486.4 451.3,486.4 451.3,481.4 
			476.1,481.4 488.9,481.4 		"/>
	</g>
	<g id="XMLID_586_">
		<path id="XMLID_607_" class="st21" d="M513.7,487.6c0.7,0,1.3-0.6,1.3-1.3v-5c0-0.7-0.6-1.3-1.3-1.3h-23.5v-3.7
			c0-0.7-0.6-1.3-1.3-1.3h-12.8c-0.7,0-1.3,0.6-1.3,1.3v3.7h-23.5c-0.7,0-1.3,0.6-1.3,1.3v5c0,0.7,0.6,1.3,1.3,1.3h2.7v33.7h-2.7
			c-0.7,0-1.3,0.6-1.3,1.3v6.4c0,0.7,0.6,1.3,1.3,1.3H469l-12.7,15.6c-0.3,0.4-0.4,0.9-0.1,1.4c0.1,0.4,0.7,0.7,1.2,0.7h10.7
			c0.4,0,0.7-0.1,1-0.4l13.4-16.4l13.4,16.4c0.3,0.3,0.6,0.4,1,0.4h10.7c0.4,0,1-0.3,1.2-0.7c0.1-0.4,0.1-1-0.1-1.4L496,530.4h17.8
			c0.7,0,1.3-0.6,1.3-1.3v-6.4c0-0.7-0.6-1.3-1.3-1.3h-2.7v-33.7H513.7L513.7,487.6z M477.4,477.7h10.3v2.4h-10.3V477.7z
			 M452.5,482.7h60v2.4h-60V482.7z M467.4,545.3H460l12.4-15h7.4L467.4,545.3z M504.9,545.3h-7.4l-12.4-15h7.4L504.9,545.3z
			 M512.5,527.7h-60v-3.8h60V527.7z M502.6,521.3h-7.2v-2h7.2V521.3z M508.5,521.3h-3.3V518c0-0.7-0.6-1.3-1.3-1.3h-9.7
			c-0.7,0-1.3,0.6-1.3,1.3v3.3h-36.4v-33.7h51.8v33.7H508.5z"/>
		<path id="XMLID_597_" class="st21" d="M462.2,507.7h14.1c0.7,0,1.3-0.6,1.3-1.3v-7.5c0-0.3-0.1-0.7-0.4-0.9l-6.6-6.6
			c-0.3-0.3-0.6-0.4-0.9-0.4h-7.5c-0.7,0-1.3,0.6-1.3,1.3v14.1C460.9,507.2,461.5,507.7,462.2,507.7z M471.1,495.5l2.2,2.2h-2.2
			V495.5z M463.5,493.8h5v5.3c0,0.7,0.6,1.3,1.3,1.3h5.3v5h-11.6V493.8z"/>
		<path id="XMLID_594_" class="st21" d="M483.2,501.8h8c0.7,0,1.3-0.6,1.3-1.3v-8c0-0.7-0.6-1.3-1.3-1.3h-8c-0.7,0-1.3,0.6-1.3,1.3
			v8C481.9,501.2,482.5,501.8,483.2,501.8z M484.5,493.8h5.6v5.6h-5.6V493.8L484.5,493.8z"/>
		<path id="XMLID_591_" class="st21" d="M495.9,504.5h8c0.7,0,1.3-0.6,1.3-1.3v-8.1c0-0.7-0.6-1.3-1.3-1.3h-8
			c-0.7,0-1.3,0.6-1.3,1.3v8C494.7,503.9,495.3,504.5,495.9,504.5z M497.2,496.4h5.6v5.6h-5.6V496.4L497.2,496.4z"/>
		<path id="XMLID_590_" class="st21" d="M481.9,509.8h20.4c0.7,0,1.3-0.6,1.3-1.3c0-0.7-0.6-1.3-1.3-1.3h-20.4
			c-0.7,0-1.3,0.6-1.3,1.3C480.6,509.2,481.2,509.8,481.9,509.8z"/>
		<path id="XMLID_589_" class="st21" d="M481.9,514.5h20.4c0.7,0,1.3-0.6,1.3-1.3c0-0.7-0.6-1.3-1.3-1.3h-20.4
			c-0.7,0-1.3,0.6-1.3,1.3C480.6,513.9,481.2,514.5,481.9,514.5z"/>
		<path id="XMLID_588_" class="st21" d="M462.2,514.5h14.1c0.7,0,1.3-0.6,1.3-1.3c0-0.7-0.6-1.3-1.3-1.3h-14.1
			c-0.7,0-1.3,0.6-1.3,1.3C460.9,513.9,461.5,514.5,462.2,514.5z"/>
	</g>
</g>
<g id="XMLID_3_" class="st4">
	<g id="XMLID_645_">
		<path id="XMLID_668_" class="st22" d="M905.9,477.9c-18.9,0-34.2,15.3-34.2,34.2c0,14.4,8.8,26.7,21.4,31.8l46.6-35.7
			C937.9,491.2,923.4,477.9,905.9,477.9L905.9,477.9z"/>
		<path id="XMLID_665_" class="st23" d="M940.1,512.1c0-1.3-0.1-2.7-0.3-4l-11.7-11.7l-1.7,9.3l-15.9-15.9l-14.9,3l-3-3l-3,3l-3-3
			l-3,44.5l9.5,9.5c3.9,1.6,8.2,2.4,12.7,2.4C924.8,546.3,940.1,531,940.1,512.1L940.1,512.1z"/>
		<path id="XMLID_662_" class="st24" d="M928.1,496.2v34.7l-13.3,1.5l3-23.5L928.1,496.2z"/>
		<path id="XMLID_659_" class="st25" d="M917.6,508.9v23.5h-13.3l3-27.3L917.6,508.9z"/>
		<path id="XMLID_656_" class="st24" d="M907.4,505.2v27.3H894l3-14.6L907.4,505.2z"/>
		<path id="XMLID_653_" class="st25" d="M897.1,517.9v14.6h-11.7l1.5-18.4L897.1,517.9z"/>
		<path id="XMLID_650_" class="st10" d="M928.1,534.4h-44.2v-44.5h3v41.3h41.3v3.2H928.1z"/>
		<rect id="XMLID_629_" x="889.7" y="489.8" class="st24" width="3" height="3"/>
		<rect id="XMLID_628_" x="895.6" y="495.7" class="st25" width="14.9" height="3"/>
		<rect id="XMLID_627_" x="889.7" y="495.7" class="st25" width="3" height="3"/>
		<rect id="XMLID_626_" x="895.6" y="489.8" class="st24" width="14.9" height="3"/>
	</g>
	<circle id="XMLID_585_" class="st26" cx="906.2" cy="512.1" r="33.7"/>
	<path id="XMLID_605_" class="st27" d="M897.1,531.1h-10.3v-17c3.5,1.2,6.9,2.6,10.4,3.7C897.1,522.2,897.1,526.7,897.1,531.1z"/>
	<path id="XMLID_673_" class="st28" d="M907.4,531.1h-10.3c0-4.2,0-8.5,0-12.8c3.4-4.2,6.9-8.4,10.3-12.6
		C907.4,514.2,907.4,522.7,907.4,531.1z"/>
	<path id="XMLID_69_" class="st29" d="M917.8,531.1h-9.1c0-8.7,0-17.3,0-26c3,1.3,6.1,2.8,9.2,4.1
		C917.8,516.4,917.8,523.8,917.8,531.1z"/>
	<path id="XMLID_70_" class="st30" d="M927.3,531.1h-9.1c0-7.6,0-15.3,0-23c3-4,6.1-8,9.1-11.9C927.2,507.9,927.2,519.5,927.3,531.1
		z"/>
</g>
<g id="XMLID_4_" class="st4">
	<rect id="XMLID_657_" x="1276.3" y="530.9" class="st31" width="4.5" height="10.2"/>
	<rect id="XMLID_655_" x="1276.3" y="489.4" class="st32" width="4.5" height="4.5"/>
	<rect id="XMLID_654_" x="1265.3" y="541" class="st32" width="26.6" height="4.5"/>
	<path id="XMLID_671_" class="st13" d="M1278.6,515.7l-2.6-2.6l-9.1,9.2l-3.2-3.2l12.4-12.4l2.6,2.6v-10.7h-23.6v32.3h23.6
		L1278.6,515.7L1278.6,515.7z"/>
	<path id="XMLID_667_" class="st33" d="M1278.6,509.2l2.6,2.6l9.2-9.2l3.2,3.2l-12.4,12.4l-2.6-2.6v15.2h23.6v-32.3h-23.6V509.2
		L1278.6,509.2z"/>
	<rect id="XMLID_647_" x="1250.5" y="493.9" class="st31" width="56" height="4.5"/>
	<path id="XMLID_661_" class="st31" d="M1263.6,519l3.2,3.2l9.2-9.2l2.6,2.6l2.6,2.6l12.4-12.4l-3.2-3.2l-9.2,9.2l-5-5L1263.6,519z"
		/>
	<rect id="XMLID_71_" x="1255" y="498.5" class="st34" width="47" height="32.3"/>
	<rect id="XMLID_73_" x="1250.5" y="493.9" class="st34" width="56" height="4.5"/>
	<rect id="XMLID_74_" x="1276.3" y="530.9" class="st34" width="4.5" height="10.2"/>
	<rect id="XMLID_75_" x="1265.3" y="541" class="st34" width="26.6" height="4.5"/>
</g>
</svg>
