<?xml version="1.0" encoding="utf-8"?>
<!-- Generator: Adobe Illustrator 19.0.0, SVG Export Plug-In . SVG Version: 6.00 Build 0)  -->
<svg version="1.1" id="Layer_1" xmlns="http://www.w3.org/2000/svg" xmlns:xlink="http://www.w3.org/1999/xlink" x="0px" y="0px"
	 viewBox="377 109.8 1366 574.2" style="enable-background:new 377 109.8 1366 574.2;" xml:space="preserve">
<style type="text/css">
	.st0{display:none;}
	.st1{display:inline;fill:none;}
	.st2{opacity:0.5;}
	.st3{display:none;fill:#CC3333;}
	.st4{opacity:0.7;}
	.st5{clip-path:url(#SVGID_2_);fill:#2D213F;}
	.st6{fill:#FEDE94;}
	.st7{fill:#AAE1E9;}
	.st8{fill:#F47C6D;}
	.st9{fill:#505967;}
	.st10{fill:#2D213F;}
	.st11{fill:#FF5023;}
	.st12{fill:#FF9811;}
	.st13{fill:#FFDA44;}
	.st14{fill:#CDCDD0;}
	.st15{fill:#ACABB1;}
	.st16{fill:none;stroke:#2D213F;stroke-width:1.5103;stroke-linejoin:round;stroke-miterlimit:10;}
	.st17{fill:#F7B239;}
	.st18{fill:#F95428;}
	.st19{fill:#2BA5F7;}
	.st20{fill:#E6E6E6;}
	.st21{fill:#333333;}
	.st22{fill:#FF7F4F;}
	.st23{fill:#FF5419;}
	.st24{fill:#FFC61B;}
	.st25{fill:#FFEDB5;}
	.st26{fill:none;stroke:#2D213F;stroke-width:1.7815;stroke-linejoin:round;stroke-miterlimit:10;}
	.st27{fill:none;stroke:#2D213F;stroke-width:1.7815;stroke-miterlimit:10;}
	.st28{fill:none;stroke:#2D213F;stroke-width:1.1955;stroke-miterlimit:10;}
	.st29{fill:none;stroke:#2D213F;stroke-width:1.1758;stroke-miterlimit:10;}
	.st30{fill:none;stroke:#2D213F;stroke-width:1.1879;stroke-miterlimit:10;}
	.st31{fill:#2488FF;}
	.st32{fill:#005ECE;}
	.st33{fill:#FFCD00;}
	.st34{fill:none;stroke:#2D213F;stroke-width:1.5257;stroke-miterlimit:10;}
</style>
<g id="Layer_5" class="st0">
	
		<text id="XMLID_563_" transform="matrix(1 0 0 1 1453.2158 1210.5017)" style="display:inline;fill:#CCCCCC; font-family:'Raleway-Regular'; font-size:24.016px;">Students</text>
	
		<text id="XMLID_562_" transform="matrix(1 0 0 1 1465.1553 1168.4343)" style="display:inline;fill:#FFFFFF; font-family:'Montserrat-Medium'; font-size:130px;">7</text>
	
		<text id="XMLID_561_" transform="matrix(1 0 0 1 1549.5557 1168.4343)" style="display:inline;fill:#FFFFFF; font-family:'Montserrat-Medium'; font-size:130px;">2</text>
	
		<text id="XMLID_560_" transform="matrix(1 0 0 1 1380.3486 1168.4343)" style="display:inline;fill:#FFFFFF; font-family:'Montserrat-Medium'; font-size:130px;">9</text>
	<rect id="XMLID_559_" x="1440.9" y="1246.8" class="st1" width="142" height="126"/>
	
		<text transform="matrix(1 0 0 1 1440.9431 1260.1062)" style="display:inline;fill:#B3B3B3; font-family:'Montserrat-Medium'; font-size:18px;">Lorem ipsum </text>
	
		<text transform="matrix(1 0 0 1 1440.9431 1281.7063)" style="display:inline;fill:#B3B3B3; font-family:'Montserrat-Medium'; font-size:18px;">dolor sit amet, </text>
	
		<text transform="matrix(1 0 0 1 1440.9431 1303.3063)" style="display:inline;fill:#B3B3B3; font-family:'Montserrat-Medium'; font-size:18px;">consectetur </text>
	
		<text transform="matrix(1 0 0 1 1440.9431 1324.9063)" style="display:inline;fill:#B3B3B3; font-family:'Montserrat-Medium'; font-size:18px;">adipiscing elit.</text>
	
		<text id="XMLID_556_" transform="matrix(1 0 0 1 1155.8822 1210.5017)" style="display:inline;fill:#CCCCCC; font-family:'Raleway-Regular'; font-size:24.016px;">Students</text>
	
		<text id="XMLID_555_" transform="matrix(1 0 0 1 1167.8218 1168.4343)" style="display:inline;fill:#FFFFFF; font-family:'Montserrat-Medium'; font-size:130px;">7</text>
	
		<text id="XMLID_554_" transform="matrix(1 0 0 1 1252.2219 1168.4343)" style="display:inline;fill:#FFFFFF; font-family:'Montserrat-Medium'; font-size:130px;">2</text>
	
		<text id="XMLID_553_" transform="matrix(1 0 0 1 1083.015 1168.4343)" style="display:inline;fill:#FFFFFF; font-family:'Montserrat-Medium'; font-size:130px;">9</text>
	<rect id="XMLID_552_" x="1143.6" y="1246.8" class="st1" width="142" height="126"/>
	
		<text transform="matrix(1 0 0 1 1143.6096 1260.1062)" style="display:inline;fill:#B3B3B3; font-family:'Montserrat-Medium'; font-size:18px;">Lorem ipsum </text>
	
		<text transform="matrix(1 0 0 1 1143.6096 1281.7063)" style="display:inline;fill:#B3B3B3; font-family:'Montserrat-Medium'; font-size:18px;">dolor sit amet, </text>
	
		<text transform="matrix(1 0 0 1 1143.6096 1303.3063)" style="display:inline;fill:#B3B3B3; font-family:'Montserrat-Medium'; font-size:18px;">consectetur </text>
	
		<text transform="matrix(1 0 0 1 1143.6096 1324.9063)" style="display:inline;fill:#B3B3B3; font-family:'Montserrat-Medium'; font-size:18px;">adipiscing elit.</text>
	
		<text id="XMLID_549_" transform="matrix(1 0 0 1 862.8789 1210.5017)" style="display:inline;fill:#CCCCCC; font-family:'Raleway-Regular'; font-size:24.016px;">Students</text>
	
		<text id="XMLID_548_" transform="matrix(1 0 0 1 874.8184 1168.4343)" style="display:inline;fill:#FFFFFF; font-family:'Montserrat-Medium'; font-size:130px;">7</text>
	
		<text id="XMLID_547_" transform="matrix(1 0 0 1 959.2188 1168.4343)" style="display:inline;fill:#FFFFFF; font-family:'Montserrat-Medium'; font-size:130px;">2</text>
	
		<text id="XMLID_546_" transform="matrix(1 0 0 1 790.0117 1168.4343)" style="display:inline;fill:#FFFFFF; font-family:'Montserrat-Medium'; font-size:130px;">9</text>
	<rect id="XMLID_545_" x="850.6" y="1246.8" class="st1" width="142" height="126"/>
	
		<text transform="matrix(1 0 0 1 850.6062 1260.1062)" style="display:inline;fill:#B3B3B3; font-family:'Montserrat-Medium'; font-size:18px;">Lorem ipsum </text>
	
		<text transform="matrix(1 0 0 1 850.6062 1281.7063)" style="display:inline;fill:#B3B3B3; font-family:'Montserrat-Medium'; font-size:18px;">dolor sit amet, </text>
	
		<text transform="matrix(1 0 0 1 850.6062 1303.3063)" style="display:inline;fill:#B3B3B3; font-family:'Montserrat-Medium'; font-size:18px;">consectetur </text>
	
		<text transform="matrix(1 0 0 1 850.6062 1324.9063)" style="display:inline;fill:#B3B3B3; font-family:'Montserrat-Medium'; font-size:18px;">adipiscing elit.</text>
	
		<text id="XMLID_542_" transform="matrix(1 0 0 1 565.5452 1210.5017)" style="display:inline;fill:#CCCCCC; font-family:'Raleway-Regular'; font-size:24.016px;">Students</text>
	
		<text id="XMLID_541_" transform="matrix(1 0 0 1 577.4846 1168.4343)" style="display:inline;fill:#FFFFFF; font-family:'Montserrat-Medium'; font-size:130px;">7</text>
	
		<text id="XMLID_540_" transform="matrix(1 0 0 1 661.885 1168.4343)" style="display:inline;fill:#FFFFFF; font-family:'Montserrat-Medium'; font-size:130px;">2</text>
	
		<text id="XMLID_539_" transform="matrix(1 0 0 1 492.678 1168.4343)" style="display:inline;fill:#FFFFFF; font-family:'Montserrat-Medium'; font-size:130px;">9</text>
	<rect id="XMLID_538_" x="553.3" y="1246.8" class="st1" width="142" height="126"/>
	
		<text transform="matrix(1 0 0 1 553.2726 1260.1062)" style="display:inline;fill:#B3B3B3; font-family:'Montserrat-Medium'; font-size:18px;">Lorem ipsum </text>
	
		<text transform="matrix(1 0 0 1 553.2726 1281.7063)" style="display:inline;fill:#B3B3B3; font-family:'Montserrat-Medium'; font-size:18px;">dolor sit amet, </text>
	
		<text transform="matrix(1 0 0 1 553.2726 1303.3063)" style="display:inline;fill:#B3B3B3; font-family:'Montserrat-Medium'; font-size:18px;">consectetur </text>
	
		<text transform="matrix(1 0 0 1 553.2726 1324.9063)" style="display:inline;fill:#B3B3B3; font-family:'Montserrat-Medium'; font-size:18px;">adipiscing elit.</text>
</g>
<g id="Layer_4">
</g>
<g id="Layer_1_1_">
</g>
<g id="Layer_3" class="st2">
</g>
<rect id="XMLID_578_" x="378.5" y="109.8" class="st3" width="1366" height="574.2"/>
<g id="XMLID_524_" class="st4">
	<g id="XMLID_528_">
		<g>
			<defs>
				<rect id="SVGID_1_" x="532" y="212.2" width="40" height="45.3"/>
			</defs>
			<clipPath id="SVGID_2_">
				<use xlink:href="#SVGID_1_"  style="overflow:visible;"/>
			</clipPath>
			<path id="XMLID_530_" class="st5" d="M571.9,243.6v7.7c0,0.7-0.6,1.3-1.3,1.3h-36v3.4c0,0.7-0.6,1.3-1.3,1.3s-1.3-0.6-1.3-1.3
				v-42.4c0-0.7,0.6-1.3,1.3-1.3s1.3,0.6,1.3,1.3v4.1h13.7c0.7,0,1.3,0.6,1.3,1.3v7.7c0,0.7-0.6,1.3-1.3,1.3h-13.7v1.9h20.8
				c0.7,0,1.3,0.6,1.3,1.3v7.7c0,0.7-0.6,1.3-1.3,1.3h-20.8v2.1h36C571.3,242.3,571.9,242.8,571.9,243.6L571.9,243.6z M569.3,249.9
				v-5h-34.7v5H569.3z M554.1,237.5v-5h-19.4v5H554.1z M547,225.3v-5h-12.4v5H547z"/>
		</g>
	</g>
	<rect id="XMLID_527_" x="534.6" y="244.9" class="st6" width="34.7" height="5"/>
	<rect id="XMLID_526_" x="534.6" y="232.4" class="st7" width="19.4" height="5"/>
	<rect id="XMLID_525_" x="534.6" y="220.3" class="st8" width="12.4" height="5"/>
</g>
<g id="XMLID_509_" class="st4">
	<path id="XMLID_521_" class="st9" d="M786.8,162.4h16.3c-0.7,8.3-7.7,14.8-16.1,14.8c-8.9,0-16.2-7.3-16.2-16.2
		c0-8.4,6.5-15.4,14.8-16.1v16.3C785.6,161.9,786.2,162.4,786.8,162.4L786.8,162.4z"/>
	<path id="XMLID_518_" class="st8" d="M809.4,156.3H792v-17.6C801.3,139.3,808.9,146.9,809.4,156.3L809.4,156.3z"/>
	<path id="XMLID_514_" class="st10" d="M811.9,157.4L811.9,157.4c0,0.8-0.6,1.3-1.2,1.3h-19.9c-0.7,0-1.2-0.5-1.2-1.2v-20.1
		c0-0.3,0.1-0.6,0.4-0.9c0.2-0.2,0.5-0.4,0.9-0.4l0,0C802.4,136.2,811.9,145.7,811.9,157.4L811.9,157.4z M792,156.3h17.4
		c-0.6-9.4-8.1-17-17.4-17.6V156.3z"/>
	<path id="XMLID_510_" class="st10" d="M805.3,160.3c0.2,0.2,0.4,0.5,0.4,0.9c-0.1,10.2-8.4,18.5-18.6,18.5
		c-10.3,0-18.6-8.4-18.6-18.6s8.3-18.5,18.5-18.6c0.3,0,0.6,0.1,0.9,0.4c0.2,0.2,0.4,0.5,0.4,0.9v16.3h16.4
		C804.8,160,805.1,160.1,805.3,160.3L805.3,160.3z M803.2,162.4h-16.3c-0.7,0-1.2-0.5-1.2-1.2v-16.3c-8.3,0.7-14.8,7.7-14.8,16.1
		c0,8.9,7.3,16.2,16.2,16.2C795.5,177.2,802.5,170.7,803.2,162.4L803.2,162.4z"/>
</g>
<g id="XMLID_490_" class="st4">
	<path id="XMLID_506_" class="st6" d="M1081.7,220.8v37h-5.6v-31.4C1078,224.8,1079.9,222.9,1081.7,220.8L1081.7,220.8z"/>
	<path id="XMLID_503_" class="st7" d="M1067.5,232.3v25.5h-5.6v-23C1063.8,234.1,1065.6,233.3,1067.5,232.3L1067.5,232.3z"/>
	<path id="XMLID_500_" class="st8" d="M1052.9,237.2v20.6h-5.6v-20.1C1049,237.6,1050.9,237.5,1052.9,237.2L1052.9,237.2z"/>
	<path id="XMLID_491_" class="st10" d="M1088.5,208.9v7.4l-2.2-1.4c-0.6,0.9-1.2,1.7-1.8,2.5c0.1,0.2,0.2,0.5,0.2,0.7v39.7h0.5
		c0.8,0,1.5,0.7,1.5,1.5s-0.7,1.5-1.5,1.5h-44.8c-0.8,0-1.5-0.7-1.5-1.5v-45c0-0.8,0.7-1.5,1.5-1.5s1.5,0.7,1.5,1.5v20.2
		c4.8,0.7,25.8,2.3,41.9-21.1l-1.8-1.1L1088.5,208.9z M1081.7,257.8v-37c-1.8,2.1-3.7,3.9-5.6,5.6v31.4H1081.7z M1073.2,257.8v-29.1
		c-0.9,0.7-1.8,1.3-2.7,1.8v27.3H1073.2z M1067.5,257.8v-25.5c-1.9,1-3.8,1.9-5.6,2.5v23H1067.5z M1059,257.8v-22
		c-1.1,0.3-2.1,0.6-3.1,0.8v21.2H1059z M1052.9,257.8v-20.6c-2.1,0.3-3.9,0.5-5.6,0.5v20.1H1052.9z M1044.4,257.8v-20.1
		c-1,0-1.8-0.1-2.5-0.2v20.3H1044.4z"/>
</g>
<g id="XMLID_470_" class="st4">
	<path id="XMLID_487_" class="st8" d="M1369.3,136.3c1.5,0,2.7,1.2,2.7,2.7s-1.2,2.7-2.7,2.7s-2.7-1.2-2.7-2.7
		C1366.5,137.5,1367.8,136.3,1369.3,136.3L1369.3,136.3z"/>
	<path id="XMLID_484_" class="st8" d="M1352.9,160.7c1.5,0,2.7,1.2,2.7,2.7s-1.2,2.7-2.7,2.7s-2.7-1.2-2.7-2.7
		C1350.2,162,1351.4,160.7,1352.9,160.7L1352.9,160.7z"/>
	<path id="XMLID_481_" class="st8" d="M1331.5,152.4c1.5,0,2.7,1.2,2.7,2.7s-1.2,2.7-2.7,2.7s-2.7-1.2-2.7-2.7
		S1330,152.4,1331.5,152.4L1331.5,152.4z"/>
	<path id="XMLID_474_" class="st10" d="M1369.3,132.5c3.6,0,6.4,2.9,6.4,6.5c0,3.6-2.9,6.5-6.4,6.5c-0.5,0-1-0.1-1.5-0.2l-9.6,14.4
		c0.7,1.1,1.2,2.4,1.2,3.7c0,3.6-2.9,6.5-6.4,6.5c-3.6,0-6.4-2.9-6.4-6.5c0-0.1,0-0.3,0-0.4l-9.9-4c-1.2,1.5-3,2.5-5.1,2.5
		c-0.7,0-1.4-0.1-2-0.3l-7.9,11.3c1,1.1,1.6,2.6,1.6,4.3c0,3.6-2.9,6.5-6.4,6.5c-3.6,0-6.4-2.9-6.4-6.5s2.9-6.5,6.4-6.5
		c0.6,0,1.1,0.1,1.7,0.2l8-11.5c-0.9-1.1-1.4-2.5-1.4-4c0-3.6,2.9-6.5,6.4-6.5c3.6,0,6.4,2.9,6.4,6.5c0,0.2,0,0.3,0,0.4l9.9,4
		c1.2-1.6,3-2.6,5.1-2.6c0.8,0,1.6,0.2,2.3,0.4l9.3-13.9c-1.1-1.2-1.8-2.7-1.8-4.4C1362.8,135.4,1365.7,132.5,1369.3,132.5
		L1369.3,132.5z M1372,139c0-1.5-1.2-2.7-2.7-2.7s-2.7,1.2-2.7,2.7s1.2,2.7,2.7,2.7C1370.8,141.8,1372,140.5,1372,139L1372,139z
		 M1355.6,163.5c0-1.5-1.2-2.7-2.7-2.7s-2.7,1.2-2.7,2.7s1.2,2.7,2.7,2.7C1354.4,166.2,1355.6,165,1355.6,163.5L1355.6,163.5z
		 M1334.2,155.1c0-1.5-1.2-2.7-2.7-2.7s-2.7,1.2-2.7,2.7s1.2,2.7,2.7,2.7S1334.2,156.6,1334.2,155.1L1334.2,155.1z M1319.5,176.9
		c0-1.5-1.2-2.7-2.7-2.7s-2.7,1.2-2.7,2.7s1.2,2.7,2.7,2.7C1318.2,179.6,1319.5,178.4,1319.5,176.9L1319.5,176.9z"/>
	<path id="XMLID_471_" class="st8" d="M1316.7,174.1c1.5,0,2.7,1.2,2.7,2.7s-1.2,2.7-2.7,2.7s-2.7-1.2-2.7-2.7
		C1314,175.4,1315.3,174.1,1316.7,174.1L1316.7,174.1z"/>
</g>
<g id="XMLID_57_" class="st4">
	<path id="XMLID_254_" class="st6" d="M1598.7,243.5c0,0.3,0,0.5,0,0.8c0,10-8.2,18.1-18.2,18.1c-3.6,0-7-1-9.9-2.9
		c1.4-1.4,2.9-2.9,4.3-4.3c1.7,0.9,3.6,1.3,5.6,1.3c6.8,0,12.3-5.5,12.3-12.2c0-0.3,0-0.5,0-0.8L1598.7,243.5L1598.7,243.5z"/>
	<path id="XMLID_251_" class="st7" d="M1583.1,226.4v6c-0.8-0.2-1.7-0.3-2.6-0.3c-6.8,0-12.3,5.5-12.3,12.2c0,2.1,0.5,4.1,1.6,5.9
		l-4.3,4.3c-2.1-3-3.2-6.6-3.2-10.2c0-10,8.2-18.1,18.2-18.1C1581.3,226.2,1582.2,226.3,1583.1,226.4L1583.1,226.4z"/>
	<path id="XMLID_248_" class="st8" d="M1601.6,235.9h-7.7c-0.8-1.3-1.8-2.5-2.9-3.4v-8.2C1595.9,226.6,1599.7,230.8,1601.6,235.9
		L1601.6,235.9z"/>
	<path id="XMLID_68_" class="st10" d="M1604.7,236.9c0.1,0.4,0,0.8-0.2,1.2c-0.3,0.3-0.7,0.5-1.1,0.5h-10.3c-0.5,0-1-0.3-1.2-0.7
		c-0.7-1.4-1.8-2.7-3.1-3.7c-0.3-0.3-0.5-0.7-0.5-1.1v-10.8c0-0.4,0.2-0.8,0.6-1.1s0.8-0.3,1.2-0.2
		C1597.3,223.6,1602.8,229.5,1604.7,236.9L1604.7,236.9z M1593.9,235.9h7.7c-1.8-5.1-5.7-9.3-10.6-11.6v8.2
		C1592.1,233.4,1593.1,234.6,1593.9,235.9L1593.9,235.9z"/>
	<path id="XMLID_64_" class="st10" d="M1601.3,242.1c0.1,0.9,0.1,1.6,0.1,2.3c0,11.5-9.4,20.8-20.9,20.8c-4.7,0-9.1-1.5-12.8-4.4
		c-0.3-0.2-0.5-0.6-0.5-1c0-0.4,0.1-0.8,0.4-1l0.3-0.3c2-2,4-3.9,5.9-5.9c0.4-0.4,1.1-0.5,1.7-0.2c1.5,1,3.3,1.5,5.1,1.5
		c5.3,0,9.6-4.3,9.6-9.5c0-0.6-0.1-1.2-0.2-1.8c-0.1-0.4,0-0.8,0.3-1.1s0.6-0.5,1-0.5h8.7C1600.6,240.9,1601.2,241.4,1601.3,242.1
		L1601.3,242.1z M1598.7,244.3c0-0.2,0-0.5,0-0.8h-5.9c0,0.3,0,0.5,0,0.8c0,6.7-5.5,12.2-12.3,12.2c-1.9,0-3.9-0.5-5.6-1.3
		c-1.4,1.4-2.9,2.9-4.3,4.3c3,1.9,6.4,2.9,9.9,2.9C1590.5,262.4,1598.7,254.3,1598.7,244.3L1598.7,244.3z"/>
	<path id="XMLID_59_" class="st10" d="M1585.8,225.3v8.9c0,0.4-0.2,0.9-0.6,1.1s-0.8,0.3-1.3,0.1c-1.1-0.4-2.3-0.7-3.4-0.7
		c-5.3,0-9.6,4.3-9.6,9.5c0,1.9,0.6,3.8,1.7,5.4c0.4,0.5,0.3,1.3-0.2,1.7l-6.2,6.1c-0.3,0.3-0.6,0.4-1,0.4h-0.1
		c-0.4,0-0.7-0.2-1-0.5c-3-3.7-4.7-8.4-4.7-13.1c0-11.4,9.4-20.8,20.9-20.8c1.4,0,2.8,0.1,4.2,0.4
		C1585.3,224.1,1585.8,224.6,1585.8,225.3L1585.8,225.3z M1583.1,232.4v-6c-0.9-0.1-1.7-0.2-2.6-0.2c-10,0-18.2,8.1-18.2,18.1
		c0,3.6,1.1,7.2,3.2,10.2l4.3-4.3c-1-1.8-1.6-3.9-1.6-5.9c0-6.7,5.5-12.2,12.3-12.2C1581.4,232.1,1582.2,232.2,1583.1,232.4
		L1583.1,232.4z"/>
</g>
<g id="XMLID_1_" class="st4">
	<g id="XMLID_583_">
		<rect id="XMLID_581_" x="501.3" y="625.7" class="st11" width="9" height="20.9"/>
		<rect id="XMLID_580_" x="501.3" y="615.2" class="st12" width="9" height="10.5"/>
		<rect id="XMLID_579_" x="501.3" y="604.7" class="st13" width="9" height="10.5"/>
		<rect id="XMLID_577_" x="514.8" y="636.1" class="st11" width="9" height="10.5"/>
		<rect id="XMLID_557_" x="514.8" y="621.2" class="st12" width="9" height="14.9"/>
		<rect id="XMLID_550_" x="514.8" y="610.7" class="st13" width="9" height="10.5"/>
		<rect id="XMLID_543_" x="528.2" y="631.6" class="st11" width="9" height="14.9"/>
		<rect id="XMLID_536_" x="528.2" y="615.2" class="st12" width="9" height="16.4"/>
		<rect id="XMLID_469_" x="528.2" y="604.7" class="st13" width="9" height="10.5"/>
		<rect id="XMLID_468_" x="541.7" y="636.1" class="st11" width="9" height="10.5"/>
		<rect id="XMLID_467_" x="541.7" y="625.7" class="st12" width="9" height="10.5"/>
		<rect id="XMLID_466_" x="541.7" y="610.7" class="st13" width="9" height="14.9"/>
		<g id="XMLID_582_">
			<path id="XMLID_587_" class="st14" d="M523.8,646.6h-26.9v6H526v-6H523.8z"/>
			<path id="XMLID_584_" class="st15" d="M550.7,646.6H526v6h29.1v-6H550.7z"/>
		</g>
	</g>
	<rect id="XMLID_600_" x="501.3" y="604.2" class="st16" width="9" height="41.8"/>
	<rect id="XMLID_601_" x="514.8" y="610.7" class="st16" width="9" height="35.4"/>
	<rect id="XMLID_602_" x="528.2" y="604.7" class="st16" width="9" height="41.3"/>
	<rect id="XMLID_603_" x="541.7" y="610.7" class="st16" width="9" height="35.4"/>
	<rect id="XMLID_604_" x="496.9" y="646.1" class="st16" width="58.3" height="6"/>
</g>
<g id="XMLID_2_" class="st4">
	<rect id="XMLID_672_" x="870.4" y="614.8" class="st17" width="5.6" height="5.6"/>
	<g id="XMLID_666_">
		<polygon id="XMLID_670_" class="st18" points="856.6,617.5 852.1,617.5 852.1,613 		"/>
		<polygon id="XMLID_669_" class="st18" points="856.6,617.5 856.6,622.8 846.8,622.8 846.8,613 852.1,613 852.1,617.5 		"/>
	</g>
	<rect id="XMLID_664_" x="861.5" y="613" class="st19" width="5.6" height="5.6"/>
	<path id="XMLID_623_" class="st20" d="M880,608.7v25.4h-4v-3.2h-6.8v3.2H842v-25.4H880z M876.1,620.5v-5.7h-5.6v5.6L876.1,620.5
		L876.1,620.5z M867.1,618.6V613h-5.6v5.6H867.1z M856.6,622.8v-5.3l-4.6-4.6h-5.3v9.9H856.6L856.6,622.8z"/>
	<rect id="XMLID_622_" x="869.2" y="630.9" class="st18" width="6.8" height="3.2"/>
	<g id="XMLID_616_">
		<polygon id="XMLID_621_" class="st17" points="882.9,634.1 882.9,638.6 868.5,638.6 861,638.6 853.5,638.6 839.1,638.6 
			839.1,634.1 842,634.1 869.2,634.1 876,634.1 880,634.1 		"/>
		<polygon id="XMLID_620_" class="st17" points="868.5,638.6 878.6,650.9 871.1,650.9 861,638.6 		"/>
		<polygon id="XMLID_619_" class="st17" points="861,638.6 850.9,650.9 843.4,650.9 853.5,638.6 		"/>
		<rect id="XMLID_618_" x="856.5" y="601.7" class="st17" width="9" height="3.5"/>
		<polygon id="XMLID_617_" class="st17" points="882.9,605.2 882.9,608.7 880,608.7 842,608.7 839.1,608.7 839.1,605.2 856.5,605.2 
			865.5,605.2 		"/>
	</g>
	<g id="XMLID_586_">
		<path id="XMLID_607_" class="st21" d="M882.9,609.6c0.5,0,0.9-0.4,0.9-0.9v-3.5c0-0.5-0.4-0.9-0.9-0.9h-16.5v-2.6
			c0-0.5-0.4-0.9-0.9-0.9h-9c-0.5,0-0.9,0.4-0.9,0.9v2.6h-16.5c-0.5,0-0.9,0.4-0.9,0.9v3.5c0,0.5,0.4,0.9,0.9,0.9h1.9v23.6h-1.9
			c-0.5,0-0.9,0.4-0.9,0.9v4.5c0,0.5,0.4,0.9,0.9,0.9h12.5l-8.9,10.9c-0.2,0.3-0.3,0.6-0.1,1c0.1,0.3,0.5,0.5,0.8,0.5h7.5
			c0.3,0,0.5-0.1,0.7-0.3l9.4-11.5l9.4,11.5c0.2,0.2,0.4,0.3,0.7,0.3h7.5c0.3,0,0.7-0.2,0.8-0.5s0.1-0.7-0.1-1l-8.9-10.9h12.5
			c0.5,0,0.9-0.4,0.9-0.9v-4.5c0-0.5-0.4-0.9-0.9-0.9H881v-23.6H882.9L882.9,609.6z M857.4,602.6h7.2v1.7h-7.2V602.6z M840,606.1h42
			v1.7h-42V606.1z M850.4,650h-5.2l8.7-10.5h5.2L850.4,650z M876.7,650h-5.2l-8.7-10.5h5.2L876.7,650z M882,637.7h-42V635h42V637.7z
			 M875.1,633.2h-5v-1.4h5V633.2z M879.2,633.2h-2.3v-2.3c0-0.5-0.4-0.9-0.9-0.9h-6.8c-0.5,0-0.9,0.4-0.9,0.9v2.3h-25.5v-23.6h36.3
			L879.2,633.2L879.2,633.2z"/>
		<path id="XMLID_597_" class="st21" d="M846.8,623.7h9.9c0.5,0,0.9-0.4,0.9-0.9v-5.3c0-0.2-0.1-0.5-0.3-0.6l-4.6-4.6
			c-0.2-0.2-0.4-0.3-0.6-0.3h-5.3c-0.5,0-0.9,0.4-0.9,0.9v9.9C845.9,623.3,846.3,623.7,846.8,623.7z M853,615.1l1.5,1.5H853V615.1z
			 M847.7,613.9h3.5v3.7c0,0.5,0.4,0.9,0.9,0.9h3.7v3.5h-8.1V613.9z"/>
		<path id="XMLID_594_" class="st21" d="M861.5,619.5h5.6c0.5,0,0.9-0.4,0.9-0.9V613c0-0.5-0.4-0.9-0.9-0.9h-5.6
			c-0.5,0-0.9,0.4-0.9,0.9v5.6C860.6,619.1,861,619.5,861.5,619.5z M862.4,613.9h3.9v3.9h-3.9V613.9L862.4,613.9z"/>
		<path id="XMLID_591_" class="st21" d="M870.4,621.4h5.6c0.5,0,0.9-0.4,0.9-0.9v-5.7c0-0.5-0.4-0.9-0.9-0.9h-5.6
			c-0.5,0-0.9,0.4-0.9,0.9v5.6C869.6,621,870,621.4,870.4,621.4z M871.3,615.7h3.9v3.9h-3.9V615.7L871.3,615.7z"/>
		<path id="XMLID_590_" class="st21" d="M860.6,625.1h14.3c0.5,0,0.9-0.4,0.9-0.9s-0.4-0.9-0.9-0.9h-14.3c-0.5,0-0.9,0.4-0.9,0.9
			S860.1,625.1,860.6,625.1z"/>
		<path id="XMLID_589_" class="st21" d="M860.6,628.4h14.3c0.5,0,0.9-0.4,0.9-0.9s-0.4-0.9-0.9-0.9h-14.3c-0.5,0-0.9,0.4-0.9,0.9
			S860.1,628.4,860.6,628.4z"/>
		<path id="XMLID_588_" class="st21" d="M846.8,628.4h9.9c0.5,0,0.9-0.4,0.9-0.9s-0.4-0.9-0.9-0.9h-9.9c-0.5,0-0.9,0.4-0.9,0.9
			S846.3,628.4,846.8,628.4z"/>
	</g>
</g>
<g id="XMLID_3_" class="st4">
	<g id="XMLID_645_">
		<path id="XMLID_668_" class="st22" d="M1233.4,595.7c-15.6,0-28.2,12.6-28.2,28.2c0,11.9,7.3,22,17.7,26.2l38.5-29.5
			C1259.8,606.6,1247.8,595.7,1233.4,595.7L1233.4,595.7z"/>
		<path id="XMLID_665_" class="st23" d="M1261.6,623.9c0-1.1-0.1-2.2-0.2-3.3l-9.7-9.7l-1.4,7.7l-13.1-13.1l-12.3,2.5l-2.5-2.5
			l-2.5,2.5l-2.5-2.5l-2.5,36.8l7.8,7.8c3.2,1.3,6.8,2,10.5,2C1249,652.1,1261.6,639.5,1261.6,623.9L1261.6,623.9z"/>
		<path id="XMLID_662_" class="st24" d="M1251.7,610.8v28.7l-11,1.2l2.5-19.4L1251.7,610.8z"/>
		<path id="XMLID_659_" class="st25" d="M1243.1,621.3v19.4h-11l2.5-22.5L1243.1,621.3z"/>
		<path id="XMLID_656_" class="st24" d="M1234.6,618.2v22.5h-11l2.5-12.1L1234.6,618.2z"/>
		<path id="XMLID_653_" class="st25" d="M1226.1,628.7v12.1h-9.7l1.2-15.2L1226.1,628.7z"/>
		<path id="XMLID_650_" class="st10" d="M1251.7,642.3h-36.5v-36.8h2.5v34.1h34.1v2.7H1251.7z"/>
		<rect id="XMLID_629_" x="1220" y="605.5" class="st24" width="2.5" height="2.5"/>
		<rect id="XMLID_628_" x="1224.9" y="610.4" class="st25" width="12.3" height="2.5"/>
		<rect id="XMLID_627_" x="1220" y="610.4" class="st25" width="2.5" height="2.5"/>
		<rect id="XMLID_626_" x="1224.9" y="605.5" class="st24" width="12.3" height="2.5"/>
	</g>
	<circle id="XMLID_585_" class="st26" cx="1233.7" cy="623.9" r="27.8"/>
	<path id="XMLID_605_" class="st27" d="M1226.1,639.6h-8.5v-14c2.9,1,5.7,2.1,8.6,3.1C1226.1,632.3,1226.1,636,1226.1,639.6z"/>
	<path id="XMLID_673_" class="st28" d="M1234.6,639.6h-8.5c0-3.5,0-7,0-10.6c2.8-3.5,5.7-6.9,8.5-10.4
		C1234.6,625.6,1234.6,632.6,1234.6,639.6z"/>
	<path id="XMLID_69_" class="st29" d="M1243.2,639.6h-7.5c0-7.2,0-14.3,0-21.5c2.5,1.1,5,2.3,7.6,3.4
		C1243.2,627.5,1243.2,633.6,1243.2,639.6z"/>
	<path id="XMLID_70_" class="st30" d="M1251.1,639.6h-7.5c0-6.3,0-12.6,0-19c2.5-3.3,5-6.6,7.5-9.8
		C1251,620.4,1251,630,1251.1,639.6z"/>
</g>
<g id="XMLID_4_" class="st4">
	<rect id="XMLID_657_" x="1598.3" y="640.4" class="st31" width="3.9" height="8.8"/>
	<rect id="XMLID_655_" x="1598.3" y="604.7" class="st32" width="3.9" height="3.9"/>
	<rect id="XMLID_654_" x="1588.8" y="649.1" class="st32" width="22.9" height="3.9"/>
	<path id="XMLID_671_" class="st13" d="M1600.3,627.3l-2.2-2.2l-7.9,7.9l-2.8-2.8l10.7-10.7l2.2,2.2v-9.2H1580v27.8h20.3V627.3z"/>
	<path id="XMLID_667_" class="st33" d="M1600.3,621.7l2.2,2.2l7.9-7.9l2.8,2.8l-10.7,10.7l-2.2-2.2v13.1h20.3v-27.8h-20.3
		L1600.3,621.7L1600.3,621.7z"/>
	<rect id="XMLID_647_" x="1576.1" y="608.6" class="st31" width="48.3" height="3.9"/>
	<path id="XMLID_661_" class="st31" d="M1587.4,630.2l2.8,2.8l7.9-7.9l2.2,2.2l2.2,2.2l10.7-10.7l-2.8-2.8l-7.9,7.9l-4.3-4.3
		L1587.4,630.2z"/>
	<rect id="XMLID_71_" x="1580" y="612.5" class="st34" width="40.5" height="27.8"/>
	<rect id="XMLID_73_" x="1576.1" y="608.6" class="st34" width="48.3" height="3.9"/>
	<rect id="XMLID_74_" x="1598.3" y="640.4" class="st34" width="3.9" height="8.8"/>
	<rect id="XMLID_75_" x="1588.8" y="649.1" class="st34" width="22.9" height="3.9"/>
</g>
</svg>
