<?xml version="1.0" encoding="utf-8"?>
<!-- Generator: Adobe Illustrator 19.0.0, SVG Export Plug-In . SVG Version: 6.00 Build 0)  -->
<svg version="1.1" id="Layer_1" xmlns="http://www.w3.org/2000/svg" xmlns:xlink="http://www.w3.org/1999/xlink" x="0px" y="0px"
	 viewBox="-125 166 360 461" style="enable-background:new -125 166 360 461;" xml:space="preserve">
<style type="text/css">
	.st0{display:none;fill:#CB3433;}
	.st1{opacity:0.7;}
	.st2{clip-path:url(#SVGID_2_);fill:#2D203E;}
	.st3{fill:#FCDD92;}
	.st4{fill:#AADEE6;}
	.st5{fill:#F37C6D;}
	.st6{fill:#505967;}
	.st7{fill:#2D203E;}
	.st8{fill:#EF532C;}
	.st9{fill:#F7971E;}
	.st10{fill:#FDD945;}
	.st11{fill:#CCCCCF;}
	.st12{fill:#ACABB0;}
	.st13{fill:none;stroke:#2D203E;stroke-width:1.0965;stroke-linejoin:round;stroke-miterlimit:10;}
	.st14{fill:#F6B137;}
	.st15{fill:#F0562E;}
	.st16{fill:#4B9ED7;}
	.st17{fill:#E5E5E4;}
	.st18{fill:#333333;}
	.st19{fill:#F37D51;}
	.st20{fill:#F05725;}
	.st21{fill:#FFC61C;}
	.st22{fill:#FFECB5;}
	.st23{fill:none;stroke:#2D203E;stroke-width:1.3507;stroke-linejoin:round;stroke-miterlimit:10;}
	.st24{fill:none;stroke:#2D203E;stroke-width:1.3507;stroke-miterlimit:10;}
	.st25{fill:none;stroke:#2D203E;stroke-width:0.9064;stroke-miterlimit:10;}
	.st26{fill:none;stroke:#2D203E;stroke-width:0.8915;stroke-miterlimit:10;}
	.st27{fill:none;stroke:#2D203E;stroke-width:0.9007;stroke-miterlimit:10;}
</style>
<rect id="XMLID_578_" x="-125" y="165.9" class="st0" width="360" height="461.2"/>
<g id="XMLID_524_" class="st1">
	<g id="XMLID_528_">
		<g>
			<g>
				<g>
					<defs>
						<rect id="SVGID_1_" x="-100.1" y="195.1" width="36.3" height="41.1"/>
					</defs>
					<clipPath id="SVGID_2_">
						<use xlink:href="#SVGID_1_"  style="overflow:visible;"/>
					</clipPath>
					<path id="XMLID_530_" class="st2" d="M-63.9,223.6v7c0,0.6-0.5,1.2-1.2,1.2h-32.6v3.1c0,0.6-0.5,1.2-1.2,1.2
						c-0.6,0-1.2-0.5-1.2-1.2v-38.5c0-0.6,0.5-1.2,1.2-1.2c0.6,0,1.2,0.5,1.2,1.2v3.7h12.4c0.6,0,1.2,0.5,1.2,1.2v7
						c0,0.6-0.5,1.2-1.2,1.2h-12.4v1.7h18.9c0.6,0,1.2,0.5,1.2,1.2v7c0,0.6-0.5,1.2-1.2,1.2h-18.9v1.9H-65
						C-64.4,222.4-63.9,222.9-63.9,223.6L-63.9,223.6z M-66.2,229.4v-4.6h-31.6v4.6H-66.2z M-80,218.1v-4.6h-17.7v4.6H-80z
						 M-86.5,207v-4.6h-11.3v4.6H-86.5z"/>
				</g>
			</g>
		</g>
	</g>
	<rect id="XMLID_527_" x="-97.7" y="224.8" class="st3" width="31.5" height="4.6"/>
	<rect id="XMLID_526_" x="-97.7" y="213.5" class="st4" width="17.6" height="4.6"/>
	<rect id="XMLID_525_" x="-97.7" y="202.5" class="st5" width="11.3" height="4.6"/>
</g>
<g id="XMLID_509_" class="st1">
	<path id="XMLID_521_" class="st6" d="M60.9,220h15.8c-0.7,8.1-7.4,14.3-15.6,14.3c-8.6,0-15.7-7.1-15.7-15.7
		c0-8.1,6.3-14.9,14.3-15.6v15.8C59.7,219.5,60.4,220,60.9,220L60.9,220z"/>
	<path id="XMLID_518_" class="st5" d="M82.8,214.1H66v-17C75,197.6,82.4,205,82.8,214.1L82.8,214.1z"/>
	<path id="XMLID_514_" class="st7" d="M85.3,215.2v0.1c0,0.7-0.6,1.2-1.2,1.2H64.8c-0.7,0-1.2-0.5-1.2-1.2v-19.5
		c0-0.3,0.1-0.6,0.4-0.9c0.2-0.2,0.5-0.4,0.9-0.4l0,0C76,194.6,85.3,203.9,85.3,215.2L85.3,215.2z M66,214.1h16.8
		C82.2,205,75,197.6,66,197V214.1z"/>
	<path id="XMLID_510_" class="st7" d="M78.8,218c0.2,0.2,0.4,0.5,0.4,0.9c-0.1,9.9-8.1,17.9-18,17.9c-10,0-18-8.1-18-18
		s8.1-17.9,17.9-18c0.3,0,0.6,0.1,0.9,0.4c0.2,0.2,0.4,0.5,0.4,0.9v15.8h15.9C78.4,217.7,78.7,217.8,78.8,218L78.8,218z M76.8,220
		H61c-0.7,0-1.2-0.5-1.2-1.2v-15.7c-8.1,0.7-14.3,7.4-14.3,15.6c0,8.6,7.1,15.7,15.7,15.7C69.4,234.4,76.1,228.1,76.8,220L76.8,220z
		"/>
</g>
<g id="XMLID_490_" class="st1">
	<path id="XMLID_506_" class="st3" d="M201.3,200.3v30.8h-4.7V205C198.2,203.7,199.8,202.1,201.3,200.3L201.3,200.3z"/>
	<path id="XMLID_503_" class="st4" d="M189.5,209.9v21.3h-4.7V212C186.4,211.4,187.9,210.7,189.5,209.9L189.5,209.9z"/>
	<path id="XMLID_500_" class="st5" d="M177.3,214v17.2h-4.7v-16.8C174,214.3,175.6,214.3,177.3,214L177.3,214z"/>
	<path id="XMLID_491_" class="st7" d="M207,190.4v6.2l-1.8-1.2c-0.5,0.7-1,1.4-1.5,2.1c0.1,0.1,0.1,0.4,0.1,0.6v33.1h0.4
		c0.7,0,1.3,0.6,1.3,1.3c0,0.7-0.6,1.3-1.3,1.3h-37.4c-0.7,0-1.3-0.6-1.3-1.3v-37.6c0-0.7,0.6-1.3,1.3-1.3c0.7,0,1.3,0.6,1.3,1.3
		v16.9c4,0.6,21.5,1.9,35-17.6l-1.5-0.9L207,190.4z M201.3,231.2v-30.9c-1.5,1.8-3.1,3.2-4.7,4.7v26.2H201.3L201.3,231.2z
		 M194.2,231.2v-24.3c-0.7,0.6-1.5,1.1-2.3,1.5v22.8H194.2z M189.5,231.2v-21.3c-1.6,0.8-3.2,1.6-4.7,2.1v19.2H189.5z M182.4,231.2
		v-18.4c-0.9,0.2-1.8,0.5-2.6,0.7v17.7H182.4L182.4,231.2z M177.3,231.2V214c-1.8,0.2-3.2,0.4-4.7,0.4v16.8H177.3L177.3,231.2z
		 M170.2,231.2v-16.8c-0.8,0-1.5-0.1-2.1-0.1v16.9C168.1,231.2,170.2,231.2,170.2,231.2z"/>
</g>
<g id="XMLID_470_" class="st1">
	<path id="XMLID_487_" class="st5" d="M-64.6,384.1c0.8,0,1.5,0.7,1.5,1.5s-0.7,1.5-1.5,1.5c-0.8,0-1.5-0.7-1.5-1.5
		S-65.4,384.1-64.6,384.1L-64.6,384.1z"/>
	<path id="XMLID_484_" class="st5" d="M-73.9,398.1c0.8,0,1.5,0.7,1.5,1.5s-0.7,1.5-1.5,1.5s-1.5-0.7-1.5-1.5
		S-74.8,398.1-73.9,398.1L-73.9,398.1z"/>
	<path id="XMLID_481_" class="st5" d="M-86.1,393.3c0.8,0,1.5,0.7,1.5,1.5c0,0.8-0.7,1.5-1.5,1.5s-1.5-0.7-1.5-1.5
		C-87.6,394-87,393.3-86.1,393.3L-86.1,393.3z"/>
	<path id="XMLID_474_" class="st7" d="M-64.6,382c2.1,0,3.6,1.7,3.6,3.7c0,2.1-1.7,3.7-3.6,3.7c-0.3,0-0.6,0-0.8-0.1l-5.5,8.2
		c0.4,0.6,0.7,1.4,0.7,2.1c0,2.1-1.7,3.7-3.6,3.7c-2.1,0-3.6-1.7-3.6-3.7v-0.2l-5.7-2.3c-0.7,0.8-1.7,1.4-2.9,1.4
		c-0.4,0-0.8,0-1.1-0.2l-4.5,6.4c0.6,0.6,0.9,1.5,0.9,2.5c0,2.1-1.7,3.7-3.6,3.7c-2.1,0-3.6-1.7-3.6-3.7c0-2.1,1.7-3.7,3.6-3.7
		c0.3,0,0.6,0,1,0.1l4.6-6.6c-0.5-0.6-0.8-1.4-0.8-2.3c0-2.1,1.7-3.7,3.6-3.7c2.1,0,3.6,1.7,3.6,3.7c0,0.1,0,0.2,0,0.2l5.7,2.3
		c0.7-0.9,1.7-1.5,2.9-1.5c0.4,0,0.9,0.1,1.3,0.2l5.3-7.9c-0.6-0.7-1-1.5-1-2.5C-68.2,383.7-66.6,382-64.6,382L-64.6,382z
		 M-63,385.7c0-0.8-0.7-1.5-1.5-1.5c-0.8,0-1.5,0.7-1.5,1.5c0,0.8,0.7,1.5,1.5,1.5C-63.7,387.3-63,386.6-63,385.7L-63,385.7z
		 M-72.4,399.7c0-0.8-0.7-1.5-1.5-1.5s-1.5,0.7-1.5,1.5c0,0.8,0.7,1.5,1.5,1.5C-73.1,401.2-72.4,400.5-72.4,399.7L-72.4,399.7z
		 M-84.6,394.9c0-0.8-0.7-1.5-1.5-1.5s-1.5,0.7-1.5,1.5s0.7,1.5,1.5,1.5S-84.6,395.8-84.6,394.9L-84.6,394.9z M-92.9,407.3
		c0-0.8-0.7-1.5-1.5-1.5s-1.5,0.7-1.5,1.5c0,0.8,0.7,1.5,1.5,1.5C-93.7,408.9-92.9,408.2-92.9,407.3L-92.9,407.3z"/>
	<path id="XMLID_471_" class="st5" d="M-94.5,405.7c0.8,0,1.5,0.7,1.5,1.5c0,0.8-0.7,1.5-1.5,1.5s-1.5-0.7-1.5-1.5
		C-96.1,406.5-95.3,405.7-94.5,405.7L-94.5,405.7z"/>
</g>
<g id="XMLID_57_" class="st1">
	<path id="XMLID_254_" class="st3" d="M202.2,392.7c0,0.2,0,0.4,0,0.6c0,8-6.6,14.4-14.5,14.4c-2.9,0-5.6-0.8-7.9-2.3
		c1.1-1.1,2.3-2.3,3.4-3.4c1.4,0.7,2.9,1,4.5,1c5.4,0,9.8-4.4,9.8-9.7c0-0.2,0-0.4,0-0.6H202.2L202.2,392.7z"/>
	<path id="XMLID_251_" class="st4" d="M189.7,379.1v4.8c-0.6-0.2-1.4-0.2-2.1-0.2c-5.4,0-9.8,4.4-9.8,9.7c0,1.7,0.4,3.3,1.3,4.7
		l-3.4,3.4c-1.7-2.4-2.6-5.3-2.6-8.1c0-8,6.6-14.4,14.5-14.4C188.2,378.9,189,379,189.7,379.1L189.7,379.1z"/>
	<path id="XMLID_248_" class="st5" d="M204.5,386.7h-6.2c-0.6-1-1.4-2-2.3-2.7v-6.6C199.9,379.3,203,382.6,204.5,386.7L204.5,386.7z
		"/>
	<path id="XMLID_68_" class="st7" d="M206.9,387.5c0.1,0.3,0,0.6-0.2,1c-0.2,0.2-0.6,0.4-0.9,0.4h-8.2c-0.4,0-0.8-0.2-1-0.6
		c-0.6-1.1-1.4-2.2-2.5-2.9c-0.2-0.2-0.4-0.6-0.4-0.9v-8.6c0-0.3,0.2-0.6,0.5-0.9c0.3-0.2,0.6-0.2,1-0.2
		C201,376.8,205.4,381.6,206.9,387.5L206.9,387.5z M198.3,386.7h6.2c-1.4-4.1-4.5-7.4-8.4-9.2v6.6
		C196.9,384.7,197.7,385.7,198.3,386.7L198.3,386.7z"/>
	<path id="XMLID_64_" class="st7" d="M204.2,391.6c0.1,0.7,0.1,1.3,0.1,1.8c0,9.2-7.5,16.6-16.7,16.6c-3.7,0-7.3-1.2-10.2-3.5
		c-0.2-0.2-0.4-0.5-0.4-0.8s0.1-0.6,0.3-0.8l0.2-0.2c1.6-1.6,3.2-3.1,4.7-4.7c0.3-0.3,0.9-0.4,1.4-0.2c1.2,0.8,2.6,1.2,4.1,1.2
		c4.2,0,7.7-3.4,7.7-7.6c0-0.5-0.1-1-0.2-1.4c-0.1-0.3,0-0.6,0.2-0.9c0.2-0.2,0.5-0.4,0.8-0.4h7
		C203.6,390.7,204.1,391.1,204.2,391.6L204.2,391.6z M202.2,393.4c0-0.2,0-0.4,0-0.6h-4.7c0,0.2,0,0.4,0,0.6c0,5.3-4.4,9.7-9.8,9.7
		c-1.5,0-3.1-0.4-4.5-1c-1.1,1.1-2.3,2.3-3.4,3.4c2.4,1.5,5.1,2.3,7.9,2.3C195.6,407.8,202.2,401.4,202.2,393.4L202.2,393.4z"/>
	<path id="XMLID_59_" class="st7" d="M191.9,378.2v7.1c0,0.3-0.2,0.7-0.5,0.9c-0.3,0.2-0.6,0.2-1,0.1c-0.9-0.3-1.8-0.6-2.7-0.6
		c-4.2,0-7.7,3.4-7.7,7.6c0,1.5,0.5,3,1.4,4.3c0.3,0.4,0.2,1-0.2,1.4l-4.9,4.9c-0.2,0.2-0.5,0.3-0.8,0.3h-0.1
		c-0.3,0-0.6-0.2-0.8-0.4c-2.4-2.9-3.7-6.7-3.7-10.5c0-9.1,7.5-16.6,16.7-16.6c1.1,0,2.3,0.1,3.3,0.3
		C191.5,377.2,191.9,377.6,191.9,378.2L191.9,378.2z M189.7,383.9v-4.8c-0.7-0.1-1.4-0.2-2.1-0.2c-8,0-14.5,6.5-14.5,14.4
		c0,2.9,0.9,5.8,2.6,8.1l3.4-3.4c-0.8-1.4-1.3-3.1-1.3-4.7c0-5.3,4.4-9.7,9.8-9.7C188.3,383.6,189,383.7,189.7,383.9L189.7,383.9z"
		/>
</g>
<g id="XMLID_1_" class="st1">
	<g id="XMLID_583_">
		<rect id="XMLID_581_" x="-98.1" y="585" class="st8" width="6.6" height="15.2"/>
		<rect id="XMLID_580_" x="-98.1" y="577.4" class="st9" width="6.6" height="7.6"/>
		<rect id="XMLID_579_" x="-98.1" y="569.8" class="st10" width="6.6" height="7.6"/>
		<rect id="XMLID_577_" x="-88.3" y="592.6" class="st8" width="6.6" height="7.6"/>
		<rect id="XMLID_557_" x="-88.3" y="581.7" class="st9" width="6.6" height="10.8"/>
		<rect id="XMLID_550_" x="-88.3" y="574.1" class="st10" width="6.6" height="7.6"/>
		<rect id="XMLID_543_" x="-78.5" y="589.3" class="st8" width="6.6" height="10.8"/>
		<rect id="XMLID_536_" x="-78.5" y="577.4" class="st9" width="6.6" height="11.9"/>
		<rect id="XMLID_469_" x="-78.5" y="569.8" class="st10" width="6.6" height="7.6"/>
		<rect id="XMLID_468_" x="-68.7" y="592.6" class="st8" width="6.6" height="7.6"/>
		<rect id="XMLID_467_" x="-68.7" y="585" class="st9" width="6.6" height="7.6"/>
		<rect id="XMLID_466_" x="-68.7" y="574.1" class="st10" width="6.6" height="10.8"/>
		<g id="XMLID_582_">
			<path id="XMLID_587_" class="st11" d="M-81.7,600.2h-19.5v4.4h21.1v-4.4H-81.7z"/>
			<path id="XMLID_584_" class="st12" d="M-62.2,600.2h-17.9v4.4H-59v-4.4H-62.2z"/>
		</g>
	</g>
	<rect id="XMLID_600_" x="-98.1" y="569.4" class="st13" width="6.6" height="30.4"/>
	<rect id="XMLID_601_" x="-88.3" y="574.1" class="st13" width="6.6" height="25.7"/>
	<rect id="XMLID_602_" x="-78.5" y="569.8" class="st13" width="6.6" height="30"/>
	<rect id="XMLID_603_" x="-68.7" y="574.1" class="st13" width="6.6" height="25.7"/>
	<rect id="XMLID_604_" x="-101.2" y="599.8" class="st13" width="42.3" height="4.4"/>
</g>
<g id="XMLID_2_" class="st1">
	<rect id="XMLID_672_" x="71.3" y="571.6" class="st14" width="4.9" height="4.9"/>
	<g id="XMLID_666_">
		<polygon id="XMLID_670_" class="st15" points="59.1,574 55.2,574 55.2,570 		"/>
		<polygon id="XMLID_669_" class="st15" points="59.1,574 59.1,578.6 50.5,578.6 50.5,570 55.2,570 55.2,574 		"/>
	</g>
	<rect id="XMLID_664_" x="63.5" y="570" class="st16" width="4.9" height="4.9"/>
	<path id="XMLID_623_" class="st17" d="M79.7,566.3v22.3h-3.5v-2.8h-6v2.8H46.3v-22.3H79.7z M76.3,576.6v-5h-4.9v4.9L76.3,576.6
		L76.3,576.6z M68.4,574.9V570h-4.9v4.9H68.4z M59.1,578.6V574l-4.1-4.1h-4.6v8.7H59.1L59.1,578.6z"/>
	<rect id="XMLID_622_" x="70.2" y="585.7" class="st15" width="6" height="2.8"/>
	<g id="XMLID_616_">
		<polygon id="XMLID_621_" class="st14" points="82.2,588.5 82.2,592.5 69.6,592.5 63,592.5 56.4,592.5 43.8,592.5 43.8,588.5 
			46.4,588.5 70.2,588.5 76.2,588.5 79.7,588.5 		"/>
		<polygon id="XMLID_620_" class="st14" points="69.6,592.5 78.5,603.3 71.9,603.3 63,592.5 		"/>
		<polygon id="XMLID_619_" class="st14" points="63,592.5 54.2,603.3 47.6,603.3 56.4,592.5 		"/>
		<rect id="XMLID_618_" x="59.1" y="560.1" class="st14" width="7.9" height="3.1"/>
		<polygon id="XMLID_617_" class="st14" points="82.2,563.2 82.2,566.3 79.7,566.3 46.4,566.3 43.8,566.3 43.8,563.2 59.1,563.2 
			67,563.2 		"/>
	</g>
	<g id="XMLID_586_">
		<path id="XMLID_607_" class="st18" d="M82.2,567c0.4,0,0.8-0.4,0.8-0.8v-3.1c0-0.4-0.4-0.8-0.8-0.8H67.7V560
			c0-0.4-0.4-0.8-0.8-0.8H59c-0.4,0-0.8,0.4-0.8,0.8v2.3H43.7c-0.4,0-0.8,0.4-0.8,0.8v3.1c0,0.4,0.4,0.8,0.8,0.8h1.6v20.7h-1.6
			c-0.4,0-0.8,0.4-0.8,0.8v4c0,0.4,0.4,0.8,0.8,0.8h11l-7.8,9.6c-0.2,0.3-0.3,0.5-0.1,0.9c0.1,0.3,0.4,0.4,0.7,0.4h6.6
			c0.3,0,0.4-0.1,0.6-0.3l8.2-10.1l8.2,10.1c0.2,0.2,0.4,0.3,0.6,0.3h6.6c0.3,0,0.6-0.2,0.7-0.4c0.1-0.3,0.1-0.6-0.1-0.9l-7.8-9.6
			h11c0.4,0,0.8-0.4,0.8-0.8v-4c0-0.4-0.4-0.8-0.8-0.8h-1.6V567H82.2L82.2,567z M59.9,560.9h6.3v1.5h-6.3V560.9z M44.6,564h36.9v1.5
			H44.6V564z M53.7,602.5h-4.5l7.6-9.2h4.5L53.7,602.5z M76.8,602.5h-4.5l-7.6-9.2h4.5L76.8,602.5z M81.5,591.7H44.6v-2.4h36.9
			V591.7z M75.4,587.7H71v-1.2h4.4V587.7z M79,587.7h-2v-2c0-0.4-0.4-0.8-0.8-0.8h-6c-0.4,0-0.8,0.4-0.8,0.8v2H47V567h31.8L79,587.7
			L79,587.7z"/>
		<path id="XMLID_597_" class="st18" d="M50.5,579.4h8.7c0.4,0,0.8-0.4,0.8-0.8V574c0-0.2-0.1-0.4-0.3-0.5l-4.1-4.1
			c-0.2-0.2-0.4-0.3-0.5-0.3h-4.6c-0.4,0-0.8,0.4-0.8,0.8v8.7C49.7,579,50.1,579.4,50.5,579.4z M56,571.9l1.3,1.3H56V571.9z
			 M51.4,570.8h3.1v3.3c0,0.4,0.4,0.8,0.8,0.8h3.3v3.1h-7.1v-7.2H51.4z"/>
		<path id="XMLID_594_" class="st18" d="M63.5,575.7h4.9c0.4,0,0.8-0.4,0.8-0.8V570c0-0.4-0.4-0.8-0.8-0.8h-4.9
			c-0.4,0-0.8,0.4-0.8,0.8v4.9C62.7,575.4,63,575.7,63.5,575.7z M64.3,570.8h3.4v3.4h-3.4V570.8L64.3,570.8z"/>
		<path id="XMLID_591_" class="st18" d="M71.3,577.4h4.9c0.4,0,0.8-0.4,0.8-0.8v-5c0-0.4-0.4-0.8-0.8-0.8h-4.9
			c-0.4,0-0.8,0.4-0.8,0.8v4.9C70.5,577,70.9,577.4,71.3,577.4z M72.1,572.4h3.4v3.4h-3.4V572.4L72.1,572.4z"/>
		<path id="XMLID_590_" class="st18" d="M62.7,580.6h12.6c0.4,0,0.8-0.4,0.8-0.8c0-0.4-0.4-0.8-0.8-0.8H62.7c-0.4,0-0.8,0.4-0.8,0.8
			C61.9,580.2,62.2,580.6,62.7,580.6z"/>
		<path id="XMLID_589_" class="st18" d="M62.7,583.5h12.6c0.4,0,0.8-0.4,0.8-0.8s-0.4-0.8-0.8-0.8H62.7c-0.4,0-0.8,0.4-0.8,0.8
			S62.2,583.5,62.7,583.5z"/>
		<path id="XMLID_588_" class="st18" d="M50.5,583.5h8.7c0.4,0,0.8-0.4,0.8-0.8s-0.4-0.8-0.8-0.8h-8.7c-0.4,0-0.8,0.4-0.8,0.8
			S50.1,583.5,50.5,583.5z"/>
	</g>
</g>
<g id="XMLID_3_" class="st1">
	<g id="XMLID_645_">
		<path id="XMLID_668_" class="st19" d="M186.2,559.4c-11.8,0-21.4,9.6-21.4,21.4c0,9,5.5,16.7,13.4,19.9l29.2-22.3
			C206.2,567.7,197.2,559.4,186.2,559.4L186.2,559.4z"/>
		<path id="XMLID_665_" class="st20" d="M207.6,580.8c0-0.8-0.1-1.7-0.2-2.5l-7.3-7.3l-1.1,5.8l-9.9-9.9l-9.3,1.9l-1.9-1.9l-1.9,1.9
			l-1.9-1.9l-1.9,27.9l5.9,5.9c2.4,1,5.1,1.5,8,1.5C198.1,602.2,207.6,592.6,207.6,580.8L207.6,580.8z"/>
		<path id="XMLID_662_" class="st21" d="M200.1,570.8v21.7l-8.3,0.9l1.9-14.7L200.1,570.8z"/>
		<path id="XMLID_659_" class="st22" d="M193.6,578.8v14.7h-8.3l1.9-17.1L193.6,578.8z"/>
		<path id="XMLID_656_" class="st21" d="M187.1,576.5v17.1h-8.3l1.9-9.2L187.1,576.5z"/>
		<path id="XMLID_653_" class="st22" d="M180.7,584.4v9.2h-7.3l0.9-11.5L180.7,584.4z"/>
		<path id="XMLID_650_" class="st7" d="M200.1,594.7h-27.7v-27.9h1.9v25.9h25.9L200.1,594.7L200.1,594.7z"/>
		<rect id="XMLID_629_" x="176.1" y="566.8" class="st21" width="1.9" height="1.9"/>
		<rect id="XMLID_628_" x="179.8" y="570.5" class="st22" width="9.3" height="1.9"/>
		<rect id="XMLID_627_" x="176.1" y="570.5" class="st22" width="1.9" height="1.9"/>
		<rect id="XMLID_626_" x="179.8" y="566.8" class="st21" width="9.3" height="1.9"/>
	</g>
	<circle id="XMLID_585_" class="st23" cx="186.4" cy="580.8" r="21.1"/>
	<path id="XMLID_605_" class="st24" d="M180.7,592.7h-6.4V582c2.2,0.8,4.3,1.6,6.5,2.3C180.7,587.1,180.7,589.9,180.7,592.7z"/>
	<path id="XMLID_673_" class="st25" d="M187.1,592.7h-6.4c0-2.6,0-5.3,0-8c2.1-2.6,4.3-5.2,6.4-7.9
		C187.1,582.1,187.1,587.4,187.1,592.7z"/>
	<path id="XMLID_69_" class="st26" d="M193.7,592.7H188c0-5.4,0-10.9,0-16.3c1.9,0.8,3.8,1.7,5.7,2.6
		C193.7,583.5,193.7,588.1,193.7,592.7z"/>
	<path id="XMLID_70_" class="st27" d="M199.6,592.7h-5.7c0-4.8,0-9.6,0-14.4c1.9-2.5,3.8-5,5.7-7.4
		C199.6,578.1,199.6,585.4,199.6,592.7z"/>
</g>
</svg>
