<?xml version="1.0" encoding="utf-8"?>
<!-- Generator: Adobe Illustrator 19.0.0, SVG Export Plug-In . SVG Version: 6.00 Build 0)  -->
<svg version="1.1" id="Layer_1" xmlns="http://www.w3.org/2000/svg" xmlns:xlink="http://www.w3.org/1999/xlink" x="0px" y="0px"
	 viewBox="377 109.8 1366 574.2" style="enable-background:new 377 109.8 1366 574.2;" xml:space="preserve">
<style type="text/css">
	.st0{display:none;}
	.st1{display:inline;fill:none;}
	.st2{opacity:0.5;}
	.st3{display:none;opacity:0.7;fill:#CC3333;}
	.st4{opacity:0.7;}
	.st5{clip-path:url(#SVGID_2_);fill:#2D213F;}
	.st6{fill:#FEDE94;}
	.st7{fill:#AAE1E9;}
	.st8{fill:#F47C6D;}
	.st9{fill:#505967;}
	.st10{fill:#2D213F;}
	.st11{fill:#FF5023;}
	.st12{fill:#FF9811;}
	.st13{fill:#FFDA44;}
	.st14{fill:#CDCDD0;}
	.st15{fill:#ACABB1;}
	.st16{fill:none;stroke:#2D213F;stroke-width:2.5939;stroke-linejoin:round;stroke-miterlimit:10;}
	.st17{fill:#F7B239;}
	.st18{fill:#F95428;}
	.st19{fill:#2BA5F7;}
	.st20{fill:#E6E6E6;}
	.st21{fill:#333333;}
	.st22{fill:#FF7F4F;}
	.st23{fill:#FF5419;}
	.st24{fill:#FFC61B;}
	.st25{fill:#FFEDB5;}
	.st26{fill:none;stroke:#2D213F;stroke-width:3.1247;stroke-linejoin:round;stroke-miterlimit:10;}
	.st27{fill:none;stroke:#2D213F;stroke-width:3.1247;stroke-miterlimit:10;}
	.st28{fill:none;stroke:#2D213F;stroke-width:2.0968;stroke-miterlimit:10;}
	.st29{fill:none;stroke:#2D213F;stroke-width:2.0623;stroke-miterlimit:10;}
	.st30{fill:none;stroke:#2D213F;stroke-width:2.0835;stroke-miterlimit:10;}
	.st31{fill:#2488FF;}
	.st32{fill:#005ECE;}
	.st33{fill:#FFCD00;}
	.st34{fill:none;stroke:#2D213F;stroke-width:2.6221;stroke-miterlimit:10;}
</style>
<g id="Layer_5" class="st0">
	
		<text id="XMLID_563_" transform="matrix(1 0 0 1 1590.2158 1178.3018)" style="display:inline;fill:#CCCCCC; font-family:'Raleway-Regular'; font-size:24.016px;">Students</text>
	
		<text id="XMLID_562_" transform="matrix(1 0 0 1 1602.1553 1136.2344)" style="display:inline;fill:#FFFFFF; font-family:'Montserrat-Medium'; font-size:130px;">7</text>
	
		<text id="XMLID_561_" transform="matrix(1 0 0 1 1686.5557 1136.2344)" style="display:inline;fill:#FFFFFF; font-family:'Montserrat-Medium'; font-size:130px;">2</text>
	
		<text id="XMLID_560_" transform="matrix(1 0 0 1 1517.3486 1136.2344)" style="display:inline;fill:#FFFFFF; font-family:'Montserrat-Medium'; font-size:130px;">9</text>
	<rect id="XMLID_559_" x="1577.9" y="1214.6" class="st1" width="142" height="126"/>
	
		<text transform="matrix(1 0 0 1 1577.9431 1227.9063)" style="display:inline;fill:#B3B3B3; font-family:'Montserrat-Medium'; font-size:18px;">Lorem ipsum </text>
	
		<text transform="matrix(1 0 0 1 1577.9431 1249.5063)" style="display:inline;fill:#B3B3B3; font-family:'Montserrat-Medium'; font-size:18px;">dolor sit amet, </text>
	
		<text transform="matrix(1 0 0 1 1577.9431 1271.1062)" style="display:inline;fill:#B3B3B3; font-family:'Montserrat-Medium'; font-size:18px;">consectetur </text>
	
		<text transform="matrix(1 0 0 1 1577.9431 1292.7063)" style="display:inline;fill:#B3B3B3; font-family:'Montserrat-Medium'; font-size:18px;">adipiscing elit.</text>
	
		<text id="XMLID_556_" transform="matrix(1 0 0 1 1292.8822 1178.3018)" style="display:inline;fill:#CCCCCC; font-family:'Raleway-Regular'; font-size:24.016px;">Students</text>
	
		<text id="XMLID_555_" transform="matrix(1 0 0 1 1304.8218 1136.2344)" style="display:inline;fill:#FFFFFF; font-family:'Montserrat-Medium'; font-size:130px;">7</text>
	
		<text id="XMLID_554_" transform="matrix(1 0 0 1 1389.2219 1136.2344)" style="display:inline;fill:#FFFFFF; font-family:'Montserrat-Medium'; font-size:130px;">2</text>
	
		<text id="XMLID_553_" transform="matrix(1 0 0 1 1220.015 1136.2344)" style="display:inline;fill:#FFFFFF; font-family:'Montserrat-Medium'; font-size:130px;">9</text>
	<rect id="XMLID_552_" x="1280.6" y="1214.6" class="st1" width="142" height="126"/>
	
		<text transform="matrix(1 0 0 1 1280.6096 1227.9063)" style="display:inline;fill:#B3B3B3; font-family:'Montserrat-Medium'; font-size:18px;">Lorem ipsum </text>
	
		<text transform="matrix(1 0 0 1 1280.6096 1249.5063)" style="display:inline;fill:#B3B3B3; font-family:'Montserrat-Medium'; font-size:18px;">dolor sit amet, </text>
	
		<text transform="matrix(1 0 0 1 1280.6096 1271.1062)" style="display:inline;fill:#B3B3B3; font-family:'Montserrat-Medium'; font-size:18px;">consectetur </text>
	
		<text transform="matrix(1 0 0 1 1280.6096 1292.7063)" style="display:inline;fill:#B3B3B3; font-family:'Montserrat-Medium'; font-size:18px;">adipiscing elit.</text>
	
		<text id="XMLID_549_" transform="matrix(1 0 0 1 999.8789 1178.3018)" style="display:inline;fill:#CCCCCC; font-family:'Raleway-Regular'; font-size:24.016px;">Students</text>
	
		<text id="XMLID_548_" transform="matrix(1 0 0 1 1011.8184 1136.2344)" style="display:inline;fill:#FFFFFF; font-family:'Montserrat-Medium'; font-size:130px;">7</text>
	
		<text id="XMLID_547_" transform="matrix(1 0 0 1 1096.2188 1136.2344)" style="display:inline;fill:#FFFFFF; font-family:'Montserrat-Medium'; font-size:130px;">2</text>
	
		<text id="XMLID_546_" transform="matrix(1 0 0 1 927.0117 1136.2344)" style="display:inline;fill:#FFFFFF; font-family:'Montserrat-Medium'; font-size:130px;">9</text>
	<rect id="XMLID_545_" x="987.6" y="1214.6" class="st1" width="142" height="126"/>
	
		<text transform="matrix(1 0 0 1 987.6062 1227.9063)" style="display:inline;fill:#B3B3B3; font-family:'Montserrat-Medium'; font-size:18px;">Lorem ipsum </text>
	
		<text transform="matrix(1 0 0 1 987.6062 1249.5063)" style="display:inline;fill:#B3B3B3; font-family:'Montserrat-Medium'; font-size:18px;">dolor sit amet, </text>
	
		<text transform="matrix(1 0 0 1 987.6062 1271.1062)" style="display:inline;fill:#B3B3B3; font-family:'Montserrat-Medium'; font-size:18px;">consectetur </text>
	
		<text transform="matrix(1 0 0 1 987.6062 1292.7063)" style="display:inline;fill:#B3B3B3; font-family:'Montserrat-Medium'; font-size:18px;">adipiscing elit.</text>
	
		<text id="XMLID_542_" transform="matrix(1 0 0 1 702.5452 1178.3018)" style="display:inline;fill:#CCCCCC; font-family:'Raleway-Regular'; font-size:24.016px;">Students</text>
	
		<text id="XMLID_541_" transform="matrix(1 0 0 1 714.4846 1136.2344)" style="display:inline;fill:#FFFFFF; font-family:'Montserrat-Medium'; font-size:130px;">7</text>
	
		<text id="XMLID_540_" transform="matrix(1 0 0 1 798.885 1136.2344)" style="display:inline;fill:#FFFFFF; font-family:'Montserrat-Medium'; font-size:130px;">2</text>
	
		<text id="XMLID_539_" transform="matrix(1 0 0 1 629.678 1136.2344)" style="display:inline;fill:#FFFFFF; font-family:'Montserrat-Medium'; font-size:130px;">9</text>
	<rect id="XMLID_538_" x="690.3" y="1214.6" class="st1" width="142" height="126"/>
	
		<text transform="matrix(1 0 0 1 690.2726 1227.9063)" style="display:inline;fill:#B3B3B3; font-family:'Montserrat-Medium'; font-size:18px;">Lorem ipsum </text>
	
		<text transform="matrix(1 0 0 1 690.2726 1249.5063)" style="display:inline;fill:#B3B3B3; font-family:'Montserrat-Medium'; font-size:18px;">dolor sit amet, </text>
	
		<text transform="matrix(1 0 0 1 690.2726 1271.1062)" style="display:inline;fill:#B3B3B3; font-family:'Montserrat-Medium'; font-size:18px;">consectetur </text>
	
		<text transform="matrix(1 0 0 1 690.2726 1292.7063)" style="display:inline;fill:#B3B3B3; font-family:'Montserrat-Medium'; font-size:18px;">adipiscing elit.</text>
</g>
<g id="Layer_4">
</g>
<g id="Layer_1_1_">
</g>
<g id="Layer_3" class="st2">
</g>
<rect id="XMLID_578_" x="377" y="109.8" class="st3" width="1366" height="574.2"/>
<g id="XMLID_524_" class="st4">
	<g id="XMLID_528_">
		<g>
			<g>
				<defs>
					<rect id="SVGID_1_" x="453.9" y="207.6" width="69.2" height="78.4"/>
				</defs>
				<clipPath id="SVGID_2_">
					<use xlink:href="#SVGID_1_"  style="overflow:visible;"/>
				</clipPath>
				<path id="XMLID_530_" class="st5" d="M522.9,262v13.3c0,1.2-1,2.2-2.2,2.2h-62.3v5.9c0,1.2-1,2.2-2.2,2.2s-2.2-1-2.2-2.2v-73.3
					c0-1.2,1-2.2,2.2-2.2s2.2,1,2.2,2.2v7.1h23.7c1.2,0,2.2,1,2.2,2.2v13.3c0,1.2-1,2.2-2.2,2.2h-23.7v3.3h36c1.2,0,2.2,1,2.2,2.2
					v13.3c0,1.2-1,2.2-2.2,2.2h-36v3.6h62.3C521.9,259.7,522.9,260.6,522.9,262L522.9,262z M518.4,272.9v-8.7h-60.1v8.7H518.4z
					 M492.1,251.4v-8.7h-33.6v8.7H492.1z M479.8,230.3v-8.7h-21.5v8.7H479.8z"/>
			</g>
		</g>
	</g>
	<rect id="XMLID_527_" x="458.4" y="264.2" class="st6" width="60.1" height="8.7"/>
	<rect id="XMLID_526_" x="458.4" y="242.6" class="st7" width="33.6" height="8.7"/>
	<rect id="XMLID_525_" x="458.4" y="221.7" class="st8" width="21.5" height="8.7"/>
</g>
<g id="XMLID_509_" class="st4">
	<path id="XMLID_521_" class="st9" d="M749.8,175.7H778c-1.2,14.4-13.3,25.6-27.9,25.6c-15.4,0-28.1-12.6-28.1-28.1
		c0-14.5,11.3-26.7,25.6-27.9v28.2C747.7,174.8,748.8,175.7,749.8,175.7L749.8,175.7z"/>
	<path id="XMLID_518_" class="st8" d="M788.9,165.1h-30.1v-30.4C774.9,135.7,788.1,148.9,788.9,165.1L788.9,165.1z"/>
	<path id="XMLID_514_" class="st10" d="M793.3,167v0.2c0,1.2-1,2.1-2.1,2.1h-34.5c-1.2,0-2.1-0.9-2.1-2.1v-34.8c0-0.5,0.2-1,0.7-1.6
		c0.3-0.3,0.9-0.7,1.6-0.7l0,0C776.8,130.3,793.3,146.8,793.3,167L793.3,167z M758.8,165.1h30.1c-1-16.3-14-29.4-30.1-30.5V165.1z"
		/>
	<path id="XMLID_510_" class="st10" d="M781.8,172.1c0.3,0.3,0.7,0.9,0.7,1.6c-0.2,17.7-14.5,32-32.2,32
		c-17.8,0-32.2-14.5-32.2-32.2s14.4-32,32-32.2c0.5,0,1,0.2,1.6,0.7c0.3,0.3,0.7,0.9,0.7,1.6v28.2h28.4
		C781,171.5,781.5,171.7,781.8,172.1L781.8,172.1z M778.2,175.7H750c-1.2,0-2.1-0.9-2.1-2.1v-28.2c-14.4,1.2-25.6,13.3-25.6,27.9
		c0,15.4,12.6,28.1,28.1,28.1C764.9,201.3,777,190.1,778.2,175.7L778.2,175.7z"/>
</g>
<g id="XMLID_490_" class="st4">
	<path id="XMLID_506_" class="st6" d="M1092.8,220.9v62.9h-9.5v-53.3C1086.5,227.8,1089.8,224.5,1092.8,220.9L1092.8,220.9z"/>
	<path id="XMLID_503_" class="st7" d="M1068.7,240.5v43.4h-9.5v-39.1C1062.4,243.6,1065.4,242.2,1068.7,240.5L1068.7,240.5z"/>
	<path id="XMLID_500_" class="st8" d="M1043.8,248.8v35h-9.5v-34.2C1037.2,249.5,1040.4,249.4,1043.8,248.8L1043.8,248.8z"/>
	<path id="XMLID_491_" class="st10" d="M1104.4,200.7v12.6l-3.7-2.4c-1,1.5-2,2.9-3.1,4.3c0.2,0.3,0.3,0.9,0.3,1.2v67.5h0.9
		c1.4,0,2.6,1.2,2.6,2.6c0,1.4-1.2,2.6-2.6,2.6h-76.2c-1.4,0-2.6-1.2-2.6-2.6v-76.6c0-1.4,1.2-2.6,2.6-2.6s2.6,1.2,2.6,2.6v34.4
		c8.2,1.2,43.9,3.9,71.3-35.9l-3.1-1.9L1104.4,200.7z M1092.8,283.9v-63c-3.1,3.6-6.3,6.6-9.5,9.5v53.4h9.5V283.9z M1078.4,283.9
		v-49.5c-1.5,1.2-3.1,2.2-4.6,3.1v46.4H1078.4z M1068.7,283.9v-43.4c-3.2,1.7-6.5,3.2-9.5,4.3v39.1H1068.7z M1054.2,283.9v-37.4
		c-1.9,0.5-3.6,1-5.3,1.4V284h5.3V283.9z M1043.8,283.9v-35c-3.6,0.5-6.6,0.9-9.5,0.9V284h9.5V283.9z M1029.4,283.9v-34.2
		c-1.7,0-3.1-0.2-4.3-0.3v34.5H1029.4z"/>
</g>
<g id="XMLID_470_" class="st4">
	<path id="XMLID_487_" class="st8" d="M1388.5,137.4c2.1,0,3.8,1.7,3.8,3.8c0,2.1-1.7,3.8-3.8,3.8s-3.8-1.7-3.8-3.8
		C1384.6,139.1,1386.4,137.4,1388.5,137.4L1388.5,137.4z"/>
	<path id="XMLID_484_" class="st8" d="M1365.4,171.8c2.1,0,3.8,1.7,3.8,3.8c0,2.1-1.7,3.8-3.8,3.8s-3.8-1.7-3.8-3.8
		C1361.6,173.7,1363.3,171.8,1365.4,171.8L1365.4,171.8z"/>
	<path id="XMLID_481_" class="st8" d="M1335.2,160.1c2.1,0,3.8,1.7,3.8,3.8s-1.7,3.8-3.8,3.8s-3.8-1.7-3.8-3.8
		S1333.1,160.1,1335.2,160.1L1335.2,160.1z"/>
	<path id="XMLID_474_" class="st10" d="M1388.5,132.1c5.1,0,9,4.1,9,9.2c0,5.1-4.1,9.2-9,9.2c-0.7,0-1.4-0.1-2.1-0.3l-13.5,20.3
		c1,1.6,1.7,3.4,1.7,5.2c0,5.1-4.1,9.2-9,9.2c-5.1,0-9-4.1-9-9.2c0-0.1,0-0.4,0-0.6l-14-5.6c-1.7,2.1-4.2,3.5-7.2,3.5
		c-1,0-2-0.1-2.8-0.4l-11.1,15.9c1.4,1.6,2.3,3.7,2.3,6.1c0,5.1-4.1,9.2-9,9.2c-5.1,0-9-4.1-9-9.2s4.1-9.2,9-9.2
		c0.8,0,1.6,0.1,2.4,0.3l11.3-16.2c-1.3-1.6-2-3.5-2-5.6c0-5.1,4.1-9.2,9-9.2c5.1,0,9,4.1,9,9.2c0,0.3,0,0.4,0,0.6l14,5.6
		c1.7-2.3,4.2-3.7,7.2-3.7c1.1,0,2.3,0.3,3.2,0.6l13.1-19.6c-1.6-1.7-2.5-3.8-2.5-6.2C1379.4,136.2,1383.5,132.1,1388.5,132.1
		L1388.5,132.1z M1392.4,141.2c0-2.1-1.7-3.8-3.8-3.8s-3.8,1.7-3.8,3.8c0,2.1,1.7,3.8,3.8,3.8
		C1390.7,145.2,1392.4,143.4,1392.4,141.2L1392.4,141.2z M1369.2,175.8c0-2.1-1.7-3.8-3.8-3.8c-2.1,0-3.8,1.7-3.8,3.8
		c0,2.1,1.7,3.8,3.8,3.8S1369.2,177.9,1369.2,175.8L1369.2,175.8z M1339,164c0-2.1-1.7-3.8-3.8-3.8s-3.8,1.7-3.8,3.8
		c0,2.1,1.7,3.8,3.8,3.8S1339,166.1,1339,164L1339,164z M1318.3,194.7c0-2.1-1.7-3.8-3.8-3.8s-3.8,1.7-3.8,3.8
		c0,2.1,1.7,3.8,3.8,3.8C1316.5,198.5,1318.3,196.8,1318.3,194.7L1318.3,194.7z"/>
	<path id="XMLID_471_" class="st8" d="M1314.4,190.7c2.1,0,3.8,1.7,3.8,3.8c0,2.1-1.7,3.8-3.8,3.8s-3.8-1.7-3.8-3.8
		C1310.6,192.6,1312.4,190.7,1314.4,190.7L1314.4,190.7z"/>
</g>
<g id="XMLID_57_" class="st4">
	<path id="XMLID_254_" class="st6" d="M1663.6,253.9c0,0.6,0,1,0,1.6c0,19.8-16.3,35.9-36.1,35.9c-7.1,0-13.9-2-19.6-5.8
		c2.8-2.8,5.8-5.8,8.5-8.5c3.4,1.8,7.1,2.6,11.1,2.6c13.5,0,24.4-10.9,24.4-24.2c0-0.6,0-1,0-1.6H1663.6L1663.6,253.9z"/>
	<path id="XMLID_251_" class="st7" d="M1632.6,220v11.9c-1.6-0.4-3.4-0.6-5.2-0.6c-13.5,0-24.4,10.9-24.4,24.2c0,4.2,1,8.1,3.2,11.7
		l-8.5,8.5c-4.2-6-6.4-13.1-6.4-20.2c0-19.8,16.3-35.9,36.1-35.9C1629,219.6,1630.8,219.8,1632.6,220L1632.6,220z"/>
	<path id="XMLID_248_" class="st8" d="M1669.3,238.8H1654c-1.6-2.6-3.6-5-5.8-6.7v-16.3C1658,220.4,1665.6,228.7,1669.3,238.8
		L1669.3,238.8z"/>
	<path id="XMLID_68_" class="st10" d="M1675.5,240.8c0.2,0.8,0,1.6-0.4,2.4c-0.6,0.6-1.4,1-2.2,1h-20.4c-1,0-2-0.6-2.4-1.4
		c-1.4-2.8-3.6-5.4-6.2-7.3c-0.6-0.6-1-1.4-1-2.2v-21.5c0-0.8,0.4-1.6,1.2-2.2c0.8-0.6,1.6-0.6,2.4-0.4
		C1660.8,214.4,1671.7,226.1,1675.5,240.8L1675.5,240.8z M1654,238.8h15.3c-3.6-10.1-11.3-18.5-21-23v16.3
		C1650.5,233.9,1652.5,236.3,1654,238.8L1654,238.8z"/>
	<path id="XMLID_64_" class="st10" d="M1668.7,251.1c0.2,1.8,0.2,3.2,0.2,4.6c0,22.8-18.7,41.3-41.5,41.3c-9.3,0-18.1-3-25.4-8.7
		c-0.6-0.4-1-1.2-1-2c0-0.8,0.2-1.6,0.8-2l0.6-0.6c4-4,7.9-7.7,11.7-11.7c0.8-0.8,2.2-1,3.4-0.4c3,2,6.5,3,10.1,3
		c10.5,0,19.1-8.5,19.1-18.9c0-1.2-0.2-2.4-0.4-3.6c-0.2-0.8,0-1.6,0.6-2.2c0.6-0.6,1.2-1,2-1h17.3
		C1667.3,248.8,1668.5,249.8,1668.7,251.1L1668.7,251.1z M1663.6,255.5c0-0.4,0-1,0-1.6h-11.7c0,0.6,0,1,0,1.6
		c0,13.3-10.9,24.2-24.4,24.2c-3.8,0-7.7-1-11.1-2.6c-2.8,2.8-5.8,5.8-8.5,8.5c6,3.8,12.7,5.8,19.6,5.8
		C1647.3,291.4,1663.6,275.4,1663.6,255.5L1663.6,255.5z"/>
	<path id="XMLID_59_" class="st10" d="M1638,217.8v17.7c0,0.8-0.4,1.8-1.2,2.2c-0.8,0.4-1.6,0.6-2.6,0.2c-2.2-0.8-4.6-1.4-6.7-1.4
		c-10.5,0-19.1,8.5-19.1,18.9c0,3.8,1.2,7.5,3.4,10.7c0.8,1,0.6,2.6-0.4,3.4l-12.3,12.1c-0.6,0.6-1.2,0.8-2,0.8h-0.2
		c-0.8,0-1.4-0.4-2-1c-6-7.3-9.3-16.7-9.3-26c0-22.6,18.7-41.3,41.5-41.3c2.8,0,5.6,0.2,8.3,0.8C1637,215.4,1638,216.4,1638,217.8
		L1638,217.8z M1632.6,231.9V220c-1.8-0.2-3.4-0.4-5.2-0.4c-19.8,0-36.1,16.1-36.1,35.9c0,7.1,2.2,14.3,6.4,20.2l8.5-8.5
		c-2-3.6-3.2-7.7-3.2-11.7c0-13.3,10.9-24.2,24.4-24.2C1629.2,231.3,1630.8,231.5,1632.6,231.9L1632.6,231.9z"/>
</g>
<g id="XMLID_1_" class="st4">
	<g id="XMLID_583_">
		<rect id="XMLID_581_" x="482" y="583.8" class="st11" width="15.5" height="35.9"/>
		<rect id="XMLID_580_" x="482" y="565.7" class="st12" width="15.5" height="18"/>
		<rect id="XMLID_579_" x="482" y="547.7" class="st13" width="15.5" height="18"/>
		<rect id="XMLID_577_" x="505.2" y="601.6" class="st11" width="15.5" height="18"/>
		<rect id="XMLID_557_" x="505.2" y="576" class="st12" width="15.5" height="25.6"/>
		<rect id="XMLID_550_" x="505.2" y="558" class="st13" width="15.5" height="18"/>
		<rect id="XMLID_543_" x="528.2" y="593.9" class="st11" width="15.5" height="25.6"/>
		<rect id="XMLID_536_" x="528.2" y="565.7" class="st12" width="15.5" height="28.2"/>
		<rect id="XMLID_469_" x="528.2" y="547.7" class="st13" width="15.5" height="18"/>
		<rect id="XMLID_468_" x="551.4" y="601.6" class="st11" width="15.5" height="18"/>
		<rect id="XMLID_467_" x="551.4" y="583.8" class="st12" width="15.5" height="18"/>
		<rect id="XMLID_466_" x="551.4" y="558" class="st13" width="15.5" height="25.6"/>
		<g id="XMLID_582_">
			<path id="XMLID_587_" class="st14" d="M520.7,619.7h-46.2V630h50v-10.3H520.7z"/>
			<path id="XMLID_584_" class="st15" d="M566.9,619.7h-42.4V630h50v-10.3H566.9z"/>
		</g>
	</g>
	<rect id="XMLID_600_" x="482" y="546.8" class="st16" width="15.5" height="71.8"/>
	<rect id="XMLID_601_" x="505.2" y="558" class="st16" width="15.5" height="60.8"/>
	<rect id="XMLID_602_" x="528.2" y="547.7" class="st16" width="15.5" height="70.9"/>
	<rect id="XMLID_603_" x="551.4" y="558" class="st16" width="15.5" height="60.8"/>
	<rect id="XMLID_604_" x="474.5" y="618.8" class="st16" width="100.1" height="10.3"/>
</g>
<g id="XMLID_2_" class="st4">
	<rect id="XMLID_672_" x="878" y="557.6" class="st17" width="11" height="11"/>
	<g id="XMLID_666_">
		<polygon id="XMLID_670_" class="st18" points="850.8,562.9 842,562.9 842,554 		"/>
		<polygon id="XMLID_669_" class="st18" points="850.8,562.9 850.8,573.4 831.5,573.4 831.5,554 842,554 842,562.9 		"/>
	</g>
	<rect id="XMLID_664_" x="860.5" y="554" class="st19" width="11" height="11"/>
	<path id="XMLID_623_" class="st20" d="M896.9,545.6v50H889v-6.3h-13.4v6.3H822v-50H896.9z M889.3,568.8v-11.2h-11v11h11V568.8z
		 M871.5,565.1v-11h-11v11H871.5z M850.8,573.4V563l-9.1-9.1h-10.4v19.5H850.8L850.8,573.4z"/>
	<rect id="XMLID_622_" x="875.7" y="589.3" class="st18" width="13.4" height="6.3"/>
	<g id="XMLID_616_">
		<polygon id="XMLID_621_" class="st17" points="902.6,595.6 902.6,604.5 874.3,604.5 859.5,604.5 844.7,604.5 816.4,604.5 
			816.4,595.6 822.1,595.6 875.7,595.6 889.1,595.6 896.9,595.6 		"/>
		<polygon id="XMLID_620_" class="st17" points="874.3,604.5 894.2,628.7 879.4,628.7 859.5,604.5 		"/>
		<polygon id="XMLID_619_" class="st17" points="859.5,604.5 839.6,628.7 824.8,628.7 844.7,604.5 		"/>
		<rect id="XMLID_618_" x="850.6" y="531.8" class="st17" width="17.7" height="6.9"/>
		<polygon id="XMLID_617_" class="st17" points="902.6,538.7 902.6,545.6 896.9,545.6 822.1,545.6 816.4,545.6 816.4,538.7 
			850.6,538.7 868.4,538.7 		"/>
	</g>
	<g id="XMLID_586_">
		<path id="XMLID_607_" class="st21" d="M902.6,547.3c1,0,1.8-0.8,1.8-1.8v-6.9c0-1-0.8-1.8-1.8-1.8h-32.5v-5.1c0-1-0.8-1.8-1.8-1.8
			h-17.7c-1,0-1.8,0.8-1.8,1.8v5.1h-32.5c-1,0-1.8,0.8-1.8,1.8v6.9c0,1,0.8,1.8,1.8,1.8h3.7v46.5h-3.7c-1,0-1.8,0.8-1.8,1.8v8.9
			c0,1,0.8,1.8,1.8,1.8h24.6l-17.5,21.5c-0.4,0.6-0.6,1.2-0.2,2c0.2,0.6,1,1,1.6,1h14.8c0.6,0,1-0.2,1.4-0.6l18.5-22.7l18.5,22.7
			c0.4,0.4,0.8,0.6,1.4,0.6h14.8c0.6,0,1.4-0.4,1.6-1c0.2-0.6,0.2-1.4-0.2-2l-17.5-21.5h24.6c1,0,1.8-0.8,1.8-1.8v-8.9
			c0-1-0.8-1.8-1.8-1.8H899v-46.5H902.6L902.6,547.3z M852.4,533.6h14.2v3.3h-14.2V533.6z M818.1,540.5h82.8v3.3h-82.8V540.5z
			 M838.6,626.9h-10.2l17.1-20.7h10.2L838.6,626.9z M890.4,626.9h-10.2l-17.1-20.7h10.2L890.4,626.9z M900.9,602.7h-82.8v-5.3h82.8
			V602.7z M887.3,593.8h-9.9V591h9.9V593.8z M895.4,593.8h-4.5v-4.5c0-1-0.8-1.8-1.8-1.8h-13.4c-1,0-1.8,0.8-1.8,1.8v4.5h-50.2
			v-46.5h71.5v46.5H895.4z"/>
		<path id="XMLID_597_" class="st21" d="M831.5,575.1H851c1,0,1.8-0.8,1.8-1.8v-10.4c0-0.4-0.2-1-0.6-1.2l-9.1-9.1
			c-0.4-0.4-0.8-0.6-1.2-0.6h-10.4c-1,0-1.8,0.8-1.8,1.8v19.5C829.7,574.3,830.5,575.1,831.5,575.1z M843.7,558.2l3,3h-3V558.2z
			 M833.3,555.8h6.9v7.3c0,1,0.8,1.8,1.8,1.8h7.3v6.9h-16V555.8z"/>
		<path id="XMLID_594_" class="st21" d="M860.5,566.9h11c1,0,1.8-0.8,1.8-1.8v-11c0-1-0.8-1.8-1.8-1.8h-11c-1,0-1.8,0.8-1.8,1.8v11
			C858.7,566.1,859.5,566.9,860.5,566.9z M862.3,555.8h7.7v7.7h-7.7V555.8L862.3,555.8z"/>
		<path id="XMLID_591_" class="st21" d="M878,570.6h11c1,0,1.8-0.8,1.8-1.8v-11.2c0-1-0.8-1.8-1.8-1.8h-11c-1,0-1.8,0.8-1.8,1.8v11
			C876.4,569.8,877.2,570.6,878,570.6z M879.8,559.4h7.7v7.7h-7.7V559.4L879.8,559.4z"/>
		<path id="XMLID_590_" class="st21" d="M858.7,577.9h28.2c1,0,1.8-0.8,1.8-1.8s-0.8-1.8-1.8-1.8h-28.2c-1,0-1.8,0.8-1.8,1.8
			S857.7,577.9,858.7,577.9z"/>
		<path id="XMLID_589_" class="st21" d="M858.7,584.4h28.2c1,0,1.8-0.8,1.8-1.8s-0.8-1.8-1.8-1.8h-28.2c-1,0-1.8,0.8-1.8,1.8
			S857.7,584.4,858.7,584.4z"/>
		<path id="XMLID_588_" class="st21" d="M831.5,584.4H851c1,0,1.8-0.8,1.8-1.8s-0.8-1.8-1.8-1.8h-19.5c-1,0-1.8,0.8-1.8,1.8
			S830.5,584.4,831.5,584.4z"/>
	</g>
</g>
<g id="XMLID_3_" class="st4">
	<g id="XMLID_645_">
		<path id="XMLID_668_" class="st22" d="M1231.9,531.4c-27.4,0-49.5,22.1-49.5,49.5c0,20.9,12.8,38.6,31,46l67.5-51.7
			C1278.2,550.6,1257.2,531.4,1231.9,531.4L1231.9,531.4z"/>
		<path id="XMLID_665_" class="st23" d="M1281.4,580.9c0-1.9-0.2-3.9-0.4-5.8l-17-17l-2.5,13.5l-23-23l-21.6,4.4l-4.4-4.4l-4.4,4.4
			l-4.4-4.4l-4.4,64.5l13.7,13.7c5.6,2.3,11.9,3.5,18.4,3.5C1259.3,630.4,1281.4,608.3,1281.4,580.9L1281.4,580.9z"/>
		<path id="XMLID_662_" class="st24" d="M1264,557.9v50.3l-19.3,2.1l4.4-34L1264,557.9z"/>
		<path id="XMLID_659_" class="st25" d="M1248.9,576.3v34h-19.3l4.4-39.5L1248.9,576.3z"/>
		<path id="XMLID_656_" class="st24" d="M1234,570.9v39.5h-19.3l4.4-21.2L1234,570.9z"/>
		<path id="XMLID_653_" class="st25" d="M1219.1,589.3v21.2h-17l2.1-26.7L1219.1,589.3z"/>
		<path id="XMLID_650_" class="st10" d="M1264,613.2h-64v-64.5h4.4v59.8h59.8v4.7H1264z"/>
		<rect id="XMLID_629_" x="1208.4" y="548.6" class="st24" width="4.4" height="4.4"/>
		<rect id="XMLID_628_" x="1217" y="557.2" class="st25" width="21.6" height="4.4"/>
		<rect id="XMLID_627_" x="1208.4" y="557.2" class="st25" width="4.4" height="4.4"/>
		<rect id="XMLID_626_" x="1217" y="548.6" class="st24" width="21.6" height="4.4"/>
	</g>
	<circle id="XMLID_585_" class="st26" cx="1232.4" cy="580.9" r="48.8"/>
	<path id="XMLID_605_" class="st27" d="M1219.1,608.4h-14.9v-24.6c5.1,1.8,10,3.7,15.1,5.4C1219.1,595.6,1219.1,602.1,1219.1,608.4z
		"/>
	<path id="XMLID_673_" class="st28" d="M1234,608.4h-14.9c0-6.1,0-12.3,0-18.6c4.9-6.1,10-12.1,14.9-18.2
		C1234,583.9,1234,596.2,1234,608.4z"/>
	<path id="XMLID_69_" class="st29" d="M1249.1,608.4h-13.2c0-12.6,0-25.1,0-37.7c4.4,1.9,8.8,4,13.3,6
		C1249.1,587.2,1249.1,597.9,1249.1,608.4z"/>
	<path id="XMLID_70_" class="st30" d="M1262.9,608.4h-13.2c0-11,0-22.1,0-33.3c4.4-5.8,8.8-11.6,13.2-17.2
		C1262.8,574.8,1262.8,591.6,1262.9,608.4z"/>
</g>
<g id="XMLID_4_" class="st4">
	<rect id="XMLID_657_" x="1595.4" y="604.7" class="st31" width="6.7" height="15.1"/>
	<rect id="XMLID_655_" x="1595.4" y="543.3" class="st32" width="6.7" height="6.7"/>
	<rect id="XMLID_654_" x="1579.1" y="619.7" class="st32" width="39.4" height="6.7"/>
	<path id="XMLID_671_" class="st13" d="M1598.8,582.2l-3.8-3.8l-13.5,13.6l-4.8-4.8l18.4-18.4l3.8,3.8v-15.8H1564v47.8h34.9
		L1598.8,582.2L1598.8,582.2z"/>
	<path id="XMLID_667_" class="st33" d="M1598.8,572.6l3.8,3.8l13.6-13.6l4.8,4.8l-18.4,18.4l-3.8-3.8v22.5h34.9v-47.8h-34.9V572.6
		L1598.8,572.6z"/>
	<rect id="XMLID_647_" x="1557.2" y="550" class="st31" width="83" height="6.7"/>
	<path id="XMLID_661_" class="st31" d="M1576.7,587.2l4.8,4.8l13.6-13.6l3.8,3.8l3.8,3.8l18.4-18.4l-4.8-4.8l-13.6,13.6l-7.4-7.4
		L1576.7,587.2z"/>
	<rect id="XMLID_71_" x="1563.9" y="556.8" class="st34" width="69.6" height="47.8"/>
	<rect id="XMLID_73_" x="1557.2" y="550" class="st34" width="83" height="6.7"/>
	<rect id="XMLID_74_" x="1595.4" y="604.7" class="st34" width="6.7" height="15.1"/>
	<rect id="XMLID_75_" x="1579.1" y="619.7" class="st34" width="39.4" height="6.7"/>
</g>
</svg>
